<?xml version="1.0" standalone="no"?>
<!DOCTYPE svg PUBLIC "-//W3C//DTD SVG 20010904//EN"
 "http://www.w3.org/TR/2001/REC-SVG-20010904/DTD/svg10.dtd">
<svg version="1.0" xmlns="http://www.w3.org/2000/svg"
 width="495.000000pt" height="1536.000000pt" viewBox="0 0 495.000000 1536.000000"
 preserveAspectRatio="xMidYMid meet">
<metadata>
Created by potrace 1.16, written by Peter Selinger 2001-2019
</metadata>
<g transform="translate(0.000000,1536.000000) scale(0.100000,-0.100000)"
fill="#000000" stroke="none">
<path d="M2554 15345 c-4 -9 -16 -20 -27 -26 -17 -10 -19 -9 -14 5 9 22 -1 21
-104 -14 -267 -89 -457 -228 -544 -396 -37 -71 -45 -80 -95 -105 -29 -14 -61
-36 -71 -47 -11 -14 -42 -27 -89 -38 -163 -37 -271 -98 -490 -278 -138 -113
-282 -216 -302 -216 -11 0 -3 -29 20 -79 19 -41 60 -67 121 -76 52 -8 73 -18
114 -51 25 -21 39 -24 116 -24 48 0 155 11 239 25 247 41 344 32 587 -55 33
-12 94 -25 135 -28 73 -7 75 -8 80 -37 5 -26 22 -40 135 -108 143 -86 165
-103 165 -126 0 -25 77 -172 118 -226 l39 -51 -5 -86 c-2 -48 -1 -99 2 -113 6
-23 9 -25 23 -13 15 12 16 9 10 -27 -4 -22 -28 -202 -53 -400 -25 -198 -56
-416 -68 -484 -16 -88 -19 -119 -9 -105 7 10 13 23 13 28 1 18 30 -27 30 -45
0 -9 -11 -39 -25 -66 -23 -44 -45 -175 -45 -263 1 -22 2 -23 11 -7 5 9 15 17
21 17 18 0 3 -79 -36 -182 -29 -78 -36 -111 -36 -168 0 -56 -4 -77 -21 -99
-16 -22 -22 -49 -26 -115 -4 -54 -11 -90 -19 -97 -17 -14 -18 -51 -3 -66 8 -8
6 -19 -8 -39 -16 -25 -18 -52 -19 -244 0 -234 2 -221 -75 -476 -44 -148 -48
-183 -19 -209 21 -19 27 -60 11 -70 -6 -3 -20 5 -32 17 l-22 23 6 -31 c5 -28
3 -32 -29 -43 -34 -12 -84 -72 -98 -118 -7 -23 -73 -82 -161 -145 -93 -67
-289 -173 -495 -268 -495 -229 -708 -347 -845 -471 -127 -115 -210 -224 -207
-274 2 -25 -4 -33 -31 -45 -24 -11 -40 -31 -62 -78 -16 -34 -45 -76 -63 -93
-17 -16 -32 -37 -32 -46 0 -9 -38 -131 -85 -272 -145 -439 -165 -556 -145
-860 7 -108 10 -212 6 -231 -5 -19 -11 -147 -16 -285 -4 -137 -13 -281 -20
-318 -9 -53 -10 -93 -1 -180 6 -62 16 -236 21 -387 18 -485 36 -557 246 -970
118 -232 151 -322 244 -665 71 -263 84 -305 119 -373 40 -79 48 -116 66 -323
24 -271 53 -359 183 -557 32 -49 69 -115 82 -148 13 -32 36 -84 51 -115 39
-78 54 -246 46 -513 -9 -305 -55 -572 -163 -951 -58 -201 -76 -238 -146 -296
-113 -93 -231 -154 -424 -218 -115 -39 -121 -42 -162 -93 -85 -106 -126 -226
-105 -308 l9 -35 75 -1 c41 0 135 -2 210 -3 114 -2 146 1 195 18 32 11 59 19
60 18 1 -1 6 -72 12 -157 10 -155 23 -213 59 -252 32 -35 55 -22 95 52 21 38
47 74 58 80 17 9 19 8 13 -7 -6 -17 -5 -16 15 1 15 13 45 21 97 26 103 10 162
47 279 175 109 119 187 195 202 195 15 0 48 -74 79 -180 31 -109 77 -203 113
-231 60 -47 145 -47 210 1 130 94 178 427 90 629 -11 25 -37 109 -58 186 -21
77 -43 153 -49 168 -36 93 -99 604 -108 867 -9 284 28 492 122 687 46 95 142
225 192 261 25 18 31 31 41 97 7 42 37 150 67 239 75 221 85 272 85 455 0 179
10 221 62 273 70 70 121 61 165 -31 25 -51 28 -66 31 -212 4 -150 5 -157 26
-167 19 -8 25 -24 36 -98 31 -210 98 -365 239 -549 50 -66 105 -147 121 -180
67 -140 86 -306 71 -617 -6 -117 -11 -257 -11 -310 0 -83 -2 -98 -16 -98 -12
0 -15 -6 -10 -25 4 -14 9 -46 13 -72 5 -38 4 -45 -8 -41 -13 5 -14 -4 -11 -54
3 -44 1 -62 -10 -71 -21 -17 -130 -437 -136 -523 -4 -62 -7 -71 -22 -67 -28 7
-45 -73 -45 -217 0 -145 22 -235 78 -316 70 -101 196 -124 275 -51 37 34 67
101 101 226 18 62 38 129 46 148 13 31 16 33 37 22 24 -13 107 -95 223 -220
80 -86 150 -126 236 -135 91 -9 96 -12 178 -96 74 -76 81 -81 104 -71 28 13
57 69 57 110 0 15 -7 66 -15 113 -18 99 -13 149 19 179 l23 22 79 -27 c99 -34
238 -40 293 -11 44 22 57 22 88 -3 14 -11 38 -20 53 -20 26 0 28 3 34 58 20
182 -83 344 -235 368 -27 4 -57 18 -77 35 -17 16 -57 35 -87 44 -30 8 -79 22
-108 30 -62 17 -127 69 -183 148 -21 29 -54 70 -74 92 -31 34 -39 51 -48 110
-6 39 -39 167 -72 285 -86 305 -99 378 -110 617 -18 375 17 655 103 823 17 33
30 46 49 48 31 4 64 71 137 285 27 78 58 164 70 190 14 33 21 69 21 113 0 58
2 65 23 73 19 8 25 21 36 87 15 92 61 275 92 366 47 142 154 417 185 480 32
64 54 92 54 68 0 -6 5 -8 10 -5 6 3 10 33 10 67 0 49 3 61 18 65 14 3 20 22
29 102 15 121 42 206 99 307 116 206 154 308 154 415 0 48 5 62 31 95 89 112
108 192 119 504 6 172 15 281 29 365 24 134 47 582 37 719 -5 67 -13 93 -50
170 -25 50 -70 165 -102 256 -60 175 -98 260 -115 260 -16 0 -99 184 -183 408
-137 363 -210 531 -265 612 -10 14 -23 50 -29 80 -14 64 -45 120 -71 127 -11
3 -22 22 -30 51 -7 26 -35 99 -63 162 -76 175 -89 217 -98 325 -5 61 -22 150
-43 226 -20 70 -38 149 -42 175 -4 27 -18 77 -31 111 -25 64 -33 136 -54 478
-9 149 -34 315 -55 368 -4 9 -3 17 2 17 5 0 14 -12 20 -27 22 -56 14 50 -13
174 -21 96 -25 138 -22 225 3 97 14 143 25 111 3 -7 9 -13 14 -13 18 0 8 71
-18 125 l-27 55 24 18 c14 9 32 17 40 17 12 0 14 12 12 60 -4 105 -13 219 -18
238 -4 13 1 17 22 17 27 0 27 0 21 57 -11 107 21 351 58 446 5 12 2 17 -10 17
-12 0 -15 6 -11 20 3 11 9 29 12 41 3 11 11 18 17 16 9 -3 12 30 14 117 1 73
12 194 29 306 22 146 28 221 28 355 1 158 -1 175 -25 245 -20 58 -28 103 -32
195 -13 252 -86 497 -181 603 -21 24 -34 47 -34 65 0 18 -11 40 -31 61 -17 17
-31 38 -31 45 0 10 -9 11 -35 7 -30 -6 -36 -4 -49 22 -22 42 -131 146 -207
197 -82 55 -185 104 -254 121 -41 10 -46 14 -27 19 12 4 22 11 22 16 0 10 -20
12 -114 9 -53 -1 -67 1 -64 12 3 8 16 12 36 10 18 -2 32 1 32 6 0 22 -280 27
-332 7 -14 -5 -18 -2 -18 14 0 24 -28 29 -36 6z m1193 -4289 c4 -31 2 -46 -6
-46 -16 0 -31 43 -31 88 0 33 1 35 16 20 9 -9 19 -37 21 -62z"/>
<path d="M3756 11943 c-4 -9 -2 -21 4 -27 7 -7 10 -2 10 17 0 31 -5 34 -14 10z"/>
</g>
</svg>
