<?xml version="1.0" standalone="no"?>
<!DOCTYPE svg PUBLIC "-//W3C//DTD SVG 20010904//EN"
 "http://www.w3.org/TR/2001/REC-SVG-20010904/DTD/svg10.dtd">
<svg version="1.0" xmlns="http://www.w3.org/2000/svg"
 width="824.000000pt" height="872.000000pt" viewBox="0 0 824.000000 872.000000"
 preserveAspectRatio="xMidYMid meet">
<metadata>
Created by potrace 1.16, written by Peter Selinger 2001-2019
</metadata>
<g transform="translate(0.000000,872.000000) scale(0.100000,-0.100000)"
fill="#000000" stroke="none">
<path d="M4252 8604 c-28 -33 -45 -64 -52 -97 -14 -68 -13 -79 15 -142 21 -49
22 -56 8 -53 -10 2 -28 21 -40 43 -18 32 -23 55 -23 122 0 73 -2 84 -22 97
-13 9 -43 16 -71 16 -44 0 -53 -4 -82 -35 -28 -31 -34 -34 -45 -20 -19 23 -60
18 -113 -16 l-49 -30 6 -82 c6 -76 6 -80 -9 -62 -8 11 -18 37 -22 59 -9 57
-44 89 -86 81 -18 -4 -41 -15 -51 -26 -26 -24 -45 -99 -46 -176 0 -67 -12 -87
-31 -52 -8 15 -9 52 -4 120 l7 98 -42 30 c-53 38 -77 46 -104 33 -11 -6 -34
-13 -50 -17 l-28 -6 4 -85 c4 -79 -6 -122 -19 -76 -3 12 -15 22 -27 24 -18 3
-21 10 -24 60 -2 48 -7 61 -29 78 -14 11 -36 20 -50 20 -28 0 -113 -75 -113
-100 0 -15 -9 -18 -52 -16 l-52 1 -16 -44 c-16 -41 -19 -43 -58 -45 -24 -1
-47 -7 -53 -13 -18 -18 -12 -87 10 -134 26 -53 26 -66 2 -79 -28 -14 -28 -14
-34 28 -13 97 -45 164 -83 170 -10 2 -40 26 -65 53 -42 45 -49 49 -93 49 -26
0 -60 -7 -76 -15 -34 -17 -70 -61 -70 -85 0 -21 -34 -52 -86 -78 -48 -24 -54
-36 -54 -102 0 -38 4 -50 18 -54 22 -8 42 -50 31 -68 -6 -9 -9 -8 -9 8 0 18
-4 20 -42 15 l-43 -6 1 -46 c0 -55 79 -221 125 -265 33 -32 36 -46 13 -65 -14
-11 -19 -9 -37 15 -11 15 -48 89 -83 163 -35 75 -66 139 -69 142 -13 12 -82 3
-126 -18 -35 -16 -50 -32 -67 -66 -21 -44 -35 -54 -47 -35 -12 19 -59 10 -86
-16 l-26 -25 -7 25 c-6 26 -51 56 -83 56 -28 0 -96 -26 -149 -58 -48 -28 -49
-29 -52 -82 -2 -31 4 -75 13 -103 9 -27 14 -51 12 -54 -7 -7 -37 27 -37 43 0
21 -60 54 -97 54 -24 0 -44 -10 -73 -37 -68 -61 -86 -115 -68 -204 10 -51 9
-59 -12 -103 -18 -36 -22 -51 -14 -64 16 -25 85 -62 117 -62 20 0 27 -5 27
-19 0 -12 11 -25 27 -33 15 -7 32 -22 38 -34 11 -22 68 -74 100 -92 18 -10 19
-11 3 -17 -19 -8 -71 29 -150 106 -54 52 -153 109 -191 109 -31 0 -87 -51 -87
-80 0 -12 -12 -37 -27 -56 -37 -49 -35 -110 4 -158 23 -30 34 -36 67 -36 43 0
106 -19 106 -32 0 -4 -7 -8 -15 -8 -8 0 -15 4 -15 9 0 12 -92 1 -108 -13 -16
-16 -5 -45 16 -44 9 1 35 -4 57 -12 l40 -13 -29 -10 c-25 -8 -32 -7 -46 10
-14 18 -19 19 -34 7 -26 -18 -13 -92 17 -103 67 -25 104 -31 200 -31 102 0
137 -10 82 -24 -33 -8 -32 -32 3 -50 51 -28 -13 -19 -70 10 -32 16 -59 23 -74
20 -27 -7 -32 -33 -9 -42 8 -4 12 -10 9 -16 -3 -5 3 -12 15 -15 21 -5 27 -18
13 -27 -4 -2 -27 16 -51 40 -34 36 -48 44 -65 39 -11 -4 -48 -8 -81 -8 -53 -2
-60 0 -63 18 -8 55 -15 65 -62 94 -61 37 -67 38 -114 6 -20 -14 -43 -25 -49
-25 -7 0 -33 -20 -57 -45 -24 -25 -59 -50 -77 -56 -40 -13 -73 -53 -73 -88 0
-41 42 -105 70 -109 14 -2 53 -17 87 -33 47 -21 63 -34 63 -49 0 -25 -15 -26
-41 -1 -33 30 -130 42 -170 20 -16 -8 -20 -19 -17 -47 2 -28 -1 -37 -14 -40
-9 -2 -19 5 -22 16 -10 29 -45 34 -91 13 -22 -11 -66 -24 -97 -31 -48 -9 -60
-17 -78 -44 -21 -36 -28 -120 -10 -131 6 -4 22 -25 36 -47 26 -40 26 -41 8
-80 -27 -60 -23 -96 14 -130 36 -31 58 -35 86 -13 22 16 64 19 84 6 10 -6 4
-10 -18 -15 -38 -7 -92 -60 -83 -82 7 -20 45 -34 89 -34 19 0 34 -4 34 -10 0
-5 -19 -10 -42 -10 -34 -1 -51 -8 -79 -33 -41 -35 -89 -108 -89 -133 0 -8 -25
-68 -55 -131 -64 -134 -70 -179 -30 -218 18 -19 35 -25 67 -25 24 0 49 -4 57
-9 17 -11 5 -31 -19 -31 -10 0 -25 -7 -34 -15 -19 -19 -22 -19 -46 5 -28 28
-112 28 -139 1 -38 -38 -39 -100 -3 -200 17 -47 25 -56 58 -67 22 -8 55 -14
74 -14 l35 -1 -25 -14 c-14 -8 -44 -14 -67 -15 -72 0 -81 -31 -57 -187 5 -35
49 -83 97 -109 26 -14 31 -14 52 0 19 12 30 13 54 5 26 -9 35 -8 57 10 15 12
32 21 39 21 7 0 18 7 25 15 7 8 22 15 33 15 16 0 18 -3 9 -12 -7 -7 -12 -20
-12 -30 0 -25 44 -23 88 4 l35 22 31 -35 c28 -32 34 -34 59 -25 24 9 31 7 42
-7 18 -24 37 -22 119 18 76 37 101 41 152 26 24 -7 46 -2 112 24 48 19 82 28
82 21 0 -18 -39 -38 -120 -61 -59 -18 -75 -26 -75 -41 0 -17 -7 -19 -77 -16
-59 3 -82 0 -102 -13 -21 -14 -39 -16 -94 -11 -37 4 -94 10 -127 13 -33 3 -68
11 -79 19 -11 8 -29 14 -39 14 -16 0 -18 -5 -13 -31 5 -29 4 -31 -17 -24 -47
15 -121 9 -141 -11 -9 -8 -16 -26 -16 -40 0 -23 3 -24 65 -24 64 0 75 -6 54
-27 -7 -7 -23 -8 -47 -2 -47 11 -72 3 -72 -22 0 -26 57 -49 158 -62 114 -15
109 -28 -16 -42 -45 -5 -57 -2 -89 20 -45 30 -67 31 -115 6 -19 -11 -38 -18
-41 -15 -12 12 -55 -21 -78 -59 -51 -85 -53 -98 -24 -150 32 -56 59 -77 100
-77 21 0 40 -9 56 -26 24 -26 25 -26 139 -21 87 4 120 2 134 -8 29 -21 9 -35
-49 -35 -30 0 -66 -5 -81 -10 -20 -8 -52 -5 -134 12 l-108 22 -51 -23 c-42
-20 -53 -31 -65 -65 -43 -127 -41 -189 9 -202 28 -7 31 -20 10 -48 -17 -23
-20 -69 -5 -96 5 -10 25 -24 44 -30 29 -9 39 -8 60 6 25 16 26 15 26 -4 0 -11
-7 -25 -15 -32 -16 -13 -20 -57 -7 -78 5 -7 24 -17 43 -22 28 -8 39 -7 61 10
15 11 32 20 38 20 5 0 10 9 10 20 0 11 4 20 8 20 5 0 27 17 50 38 23 22 42 33
42 26 0 -7 -22 -34 -49 -59 -54 -51 -73 -105 -46 -135 8 -9 15 -35 15 -57 0
-25 6 -46 16 -54 33 -27 160 -6 269 45 170 80 199 85 124 21 -29 -25 -60 -45
-69 -45 -9 0 -27 -12 -41 -26 -19 -21 -30 -25 -57 -20 -18 2 -51 -2 -74 -10
-22 -8 -53 -14 -68 -14 -23 0 -30 -6 -39 -32 -6 -17 -25 -43 -41 -57 -36 -30
-55 -112 -48 -200 6 -66 25 -83 87 -79 l44 3 13 -49 c13 -51 23 -62 63 -73 32
-8 67 15 89 58 9 18 24 35 33 37 14 3 16 -4 12 -42 -5 -40 -2 -48 26 -76 l31
-31 67 35 c57 30 74 45 106 96 20 33 37 69 37 80 0 27 48 102 60 95 6 -3 10
-15 10 -26 0 -16 5 -18 25 -13 19 5 25 2 25 -10 0 -9 -8 -16 -17 -17 -10 0
-38 -23 -61 -51 -38 -44 -43 -55 -38 -83 6 -28 3 -34 -16 -39 -13 -3 -57 -26
-99 -50 -56 -33 -78 -52 -83 -72 -8 -32 9 -90 29 -98 8 -3 15 -12 15 -20 0 -9
11 -22 24 -31 21 -14 29 -14 81 0 32 8 90 32 130 54 112 62 168 81 190 65 20
-15 26 -11 -85 -51 -25 -9 -59 -27 -77 -40 -17 -12 -38 -23 -45 -23 -7 -1 -40
-20 -73 -43 -67 -48 -77 -74 -55 -152 8 -30 9 -53 2 -79 -10 -34 -8 -40 17
-68 22 -25 37 -32 79 -36 66 -6 100 9 151 64 22 24 45 44 50 44 6 0 11 6 11
14 0 13 8 22 74 81 35 31 56 20 38 -20 -11 -24 -11 -25 28 -25 55 0 181 63
235 118 37 37 47 43 59 33 24 -20 74 -3 111 37 40 43 45 26 12 -32 -20 -35
-33 -43 -98 -66 -41 -14 -113 -45 -159 -67 -47 -23 -127 -53 -179 -67 -73 -20
-102 -33 -128 -58 -37 -36 -40 -49 -17 -72 21 -22 11 -49 -31 -81 -33 -24 -35
-30 -35 -84 0 -50 4 -60 28 -82 64 -57 115 -91 147 -96 28 -4 38 -1 60 23 18
19 25 36 22 51 -2 13 0 26 4 29 5 3 9 12 9 20 0 29 135 194 159 194 11 0 11
-4 -2 -18 -10 -10 -17 -24 -17 -30 0 -6 -18 -32 -40 -57 -56 -65 -71 -98 -73
-163 l-2 -57 67 -3 c59 -3 68 0 78 18 6 12 20 19 33 19 l22 -2 -22 -4 c-13 -2
-23 -11 -23 -19 0 -8 -6 -17 -14 -20 -8 -3 -13 -11 -10 -17 2 -7 -12 -34 -31
-61 -25 -36 -35 -60 -35 -87 0 -95 44 -129 167 -129 l83 0 16 38 c9 23 14 53
11 80 -3 23 -1 45 4 48 5 3 9 22 9 43 0 35 14 61 32 61 10 0 9 -58 -1 -85 -9
-22 6 -65 23 -65 6 0 20 7 30 15 11 8 29 12 43 9 15 -4 23 -2 23 6 0 7 6 10
14 7 8 -3 16 2 19 14 3 12 11 17 20 13 9 -3 13 -12 10 -19 -5 -13 -40 -31 -55
-27 -3 1 -23 -17 -43 -39 -39 -44 -40 -59 -2 -112 18 -27 23 -28 65 -22 42 6
45 6 32 -10 -8 -9 -39 -28 -69 -41 -65 -29 -71 -36 -71 -87 0 -46 10 -66 62
-130 47 -55 72 -64 121 -43 37 15 59 49 71 108 4 19 11 26 21 22 12 -5 14 -17
9 -60 -6 -51 -6 -54 20 -64 36 -13 69 -13 83 1 7 7 34 14 62 16 l49 4 -44 -44
c-36 -36 -44 -51 -44 -80 0 -50 15 -78 56 -106 44 -30 142 -35 171 -8 10 9 42
21 70 27 59 13 69 28 59 94 l-7 42 41 -4 40 -4 0 66 c0 48 -7 83 -26 130 -25
60 -27 96 -5 96 5 0 12 -16 16 -36 9 -48 36 -104 51 -104 30 0 35 30 36 217 0
103 1 222 2 263 1 61 -2 77 -16 88 -22 16 -23 48 -3 56 8 3 15 12 15 20 0 9 9
20 20 26 20 10 20 9 14 -45 -8 -63 10 -95 53 -95 19 0 28 11 49 58 15 31 33
71 40 87 8 17 19 54 25 83 6 29 17 59 26 67 9 9 16 38 18 73 1 31 8 68 14 82
6 14 17 59 24 100 11 67 15 75 36 78 20 3 22 1 16 -15 -5 -10 -11 -45 -14 -78
-4 -35 -15 -76 -29 -98 -23 -41 -28 -67 -12 -67 17 0 10 -33 -15 -75 -32 -52
-31 -61 6 -69 32 -6 31 -26 -2 -26 -13 0 -25 -12 -35 -37 -9 -21 -20 -45 -25
-53 -5 -8 -12 -22 -15 -30 -3 -8 -16 -36 -30 -61 -30 -58 -30 -65 1 -73 14 -4
25 -10 25 -14 0 -4 -24 -33 -53 -63 -29 -30 -64 -77 -77 -104 -27 -57 -33
-138 -11 -177 12 -23 9 -39 -33 -168 -54 -167 -58 -212 -20 -237 22 -14 33
-15 67 -5 37 9 44 8 64 -10 41 -38 63 -22 122 87 60 110 67 146 77 380 8 174
24 152 24 -33 0 -100 4 -162 10 -162 31 0 130 138 130 182 0 35 17 37 26 3 10
-40 -7 -71 -83 -148 -58 -59 -85 -98 -143 -206 -75 -144 -89 -198 -50 -208 11
-3 20 -9 20 -13 0 -4 12 -12 27 -19 25 -11 30 -10 49 12 l22 25 6 -39 c9 -57
52 -101 107 -108 l44 -6 5 -50 c7 -58 24 -95 45 -95 8 0 15 -7 15 -16 0 -22
67 -47 113 -41 42 6 72 27 93 70 12 22 12 35 3 66 -13 44 -5 91 15 91 25 0 34
-25 37 -107 4 -70 8 -85 28 -107 14 -14 30 -26 38 -26 7 0 13 -6 13 -14 0 -7
14 -19 31 -26 41 -18 77 -4 107 40 21 32 23 43 19 120 -3 47 -8 102 -12 123
-7 35 5 67 25 67 9 0 23 -142 21 -220 -1 -67 12 -110 44 -144 20 -21 33 -26
75 -26 44 0 54 4 78 32 22 24 37 31 62 30 19 0 49 5 67 13 31 13 33 17 33 61
0 44 1 46 24 40 40 -10 48 34 22 114 -24 74 -127 217 -176 247 -17 9 -30 26
-30 36 0 19 -2 20 61 -33 44 -37 62 -38 77 -5 6 14 20 25 29 25 15 0 18 -11
20 -74 2 -61 8 -86 34 -137 41 -82 68 -165 69 -209 0 -68 56 -110 145 -110 42
0 51 5 101 51 71 68 84 108 61 192 -12 48 -13 65 -4 81 11 20 12 20 15 -6 2
-16 9 -28 16 -28 8 0 16 -9 19 -19 5 -22 75 -61 108 -61 12 0 41 16 65 35 35
29 51 35 88 35 34 0 53 6 73 24 16 14 42 36 58 50 26 22 28 27 18 45 -17 28 0
35 27 11 30 -26 44 -25 107 4 110 51 99 134 -32 245 -41 36 -75 68 -75 73 0
22 35 2 90 -51 42 -40 68 -57 80 -54 28 8 33 34 10 58 -11 12 -20 24 -20 28 0
3 -18 35 -40 70 -28 44 -51 69 -77 81 -36 18 -37 19 -15 27 32 12 27 33 -17
63 -27 19 -37 33 -34 45 3 13 -6 24 -32 40 -20 12 -40 19 -44 16 -5 -2 -16 4
-26 15 -10 11 -26 20 -35 20 -17 0 -40 18 -40 32 0 14 27 9 40 -7 16 -19 64
-19 80 0 18 22 31 14 44 -25 15 -46 42 -51 51 -11 13 59 25 43 25 -33 0 -67 2
-75 21 -81 23 -7 59 -61 59 -87 0 -9 11 -30 25 -46 14 -17 25 -39 25 -50 0
-32 48 -130 69 -142 17 -8 23 -6 34 12 23 36 16 112 -20 241 -13 46 -14 63 -5
77 9 15 7 30 -13 75 -14 30 -25 66 -25 78 l1 22 19 -24 c11 -13 20 -30 20 -37
0 -8 11 -19 25 -24 20 -8 25 -16 25 -45 0 -42 5 -43 42 -8 30 29 52 25 25 -5
-11 -12 -17 -36 -17 -70 0 -30 -6 -56 -14 -64 -10 -10 -12 -39 -8 -128 2 -63
8 -119 13 -124 5 -6 9 -23 9 -38 0 -23 4 -28 24 -28 13 0 29 7 36 15 12 14 15
14 30 0 9 -8 21 -15 27 -15 6 0 14 -12 18 -27 11 -45 42 -79 83 -91 57 -17 67
-15 106 19 l35 31 24 -26 c37 -39 78 -43 130 -13 56 33 72 69 63 140 -7 54
-18 76 -69 140 -18 23 -34 60 -42 101 -8 36 -25 82 -39 103 -28 40 -34 73 -13
73 17 0 63 -91 88 -175 17 -57 30 -78 69 -115 26 -25 55 -59 65 -76 24 -42 73
-64 142 -64 53 0 58 2 95 42 30 33 38 49 38 80 0 45 -31 113 -59 127 -10 6
-22 27 -26 48 -7 37 -31 93 -45 103 -6 4 -24 37 -52 93 -6 12 -3 24 12 39 21
23 19 27 39 -57 12 -47 66 -149 97 -180 8 -8 27 -38 42 -67 23 -44 35 -56 69
-67 37 -13 44 -13 67 2 17 12 26 26 26 45 0 51 11 72 36 72 13 0 24 -4 24 -10
0 -14 55 -40 87 -40 35 0 76 27 108 70 19 26 25 46 25 88 0 42 5 61 25 86 21
28 24 38 15 60 -11 31 6 35 44 11 24 -16 76 -12 76 6 0 5 11 19 25 31 14 12
27 37 31 57 3 20 12 58 21 84 25 79 -1 153 -55 159 -21 2 -26 8 -24 23 15 88
16 83 -16 90 -17 3 -33 13 -36 20 -3 8 -23 18 -46 21 -31 5 -40 11 -40 26 0
12 -12 24 -36 34 -33 14 -35 16 -18 28 16 12 23 10 58 -16 74 -53 158 -98 185
-98 76 0 96 77 39 156 -17 24 -35 44 -40 44 -4 0 -8 8 -8 17 0 10 -19 37 -42
60 -25 26 -36 43 -27 43 8 0 26 -11 39 -25 14 -14 42 -42 64 -63 21 -20 45
-50 53 -67 9 -16 25 -40 37 -53 19 -22 26 -23 96 -17 83 8 120 25 120 56 0 11
11 35 25 53 31 41 31 66 0 116 -18 29 -21 40 -11 40 7 0 19 -7 26 -15 27 -33
120 -10 120 30 0 15 67 73 116 101 27 15 54 73 54 117 0 39 -25 107 -40 107
-4 0 -10 13 -13 30 -11 54 -34 77 -82 84 -29 5 -53 2 -72 -7 -19 -9 -42 -11
-73 -6 -66 11 -189 10 -209 -1 -45 -24 -271 -51 -271 -32 0 13 81 25 112 17
16 -4 29 -1 37 9 8 10 29 16 53 16 21 0 55 7 75 15 19 8 65 15 101 15 36 0 79
4 96 10 17 5 43 12 57 14 29 6 79 73 79 104 0 11 -18 31 -42 48 -42 28 -48 29
-193 34 -149 5 -149 5 -155 30 -5 19 -17 28 -60 42 -30 9 -73 17 -95 17 -30 1
-44 7 -60 28 -20 24 -24 25 -55 15 -44 -16 -92 -15 -114 1 -16 12 -16 14 8 27
14 7 28 22 32 32 5 17 12 18 47 13 23 -4 58 -17 77 -30 46 -31 165 -75 203
-75 16 0 44 -8 61 -19 46 -27 86 -35 86 -16 0 19 34 19 50 0 16 -19 100 -21
100 -2 -2 32 -32 70 -107 137 -46 40 -83 76 -83 80 0 4 -12 12 -26 19 -21 9
-24 14 -14 26 15 18 45 4 74 -34 31 -40 107 -114 149 -146 20 -15 40 -38 43
-51 3 -13 16 -26 27 -30 12 -3 31 -14 42 -24 44 -38 174 -62 241 -44 22 6 64
70 64 98 0 11 9 16 28 16 45 0 102 20 115 41 6 10 17 19 23 19 16 0 24 24 24
69 0 24 13 62 34 102 33 63 50 136 48 214 -2 167 -3 173 -52 228 -26 30 -29
39 -20 57 19 35 -6 138 -43 178 -38 39 -68 41 -114 6 -19 -14 -41 -23 -48 -20
-17 6 -20 36 -4 36 6 0 24 9 40 21 21 14 29 29 29 50 0 16 -5 29 -12 30 -7 0
-30 1 -50 3 -24 2 -39 -2 -42 -11 -3 -7 -17 -13 -31 -13 -15 0 -35 -5 -46 -10
-15 -8 -19 -7 -19 5 0 8 6 15 14 15 8 0 27 5 43 11 15 6 28 9 28 8 0 -1 19 8
42 20 65 33 80 77 43 124 -26 33 -27 51 -1 37 11 -5 42 -10 70 -10 48 0 52 2
78 41 16 25 26 53 25 72 -3 82 -20 185 -36 215 -15 30 -20 33 -49 27 -18 -3
-45 -11 -60 -17 -32 -12 -39 -8 -43 27 -2 24 0 25 46 25 69 0 94 13 115 57 10
21 24 42 31 46 19 11 18 62 -1 77 -14 11 -14 15 -1 29 26 28 38 74 31 118 -8
53 -27 73 -70 73 -36 0 -54 14 -30 24 23 8 36 52 25 81 -19 49 -125 87 -147
52 -4 -6 -21 -19 -38 -27 -16 -8 -38 -20 -47 -28 -9 -8 -22 -11 -28 -7 -8 5
-4 12 12 23 51 34 78 66 78 94 0 23 -4 28 -27 30 -16 1 -39 3 -53 4 -14 1 -31
3 -37 3 -7 1 -13 13 -13 27 0 25 2 26 38 20 64 -12 92 -9 114 10 32 29 48 77
48 146 0 77 -16 112 -52 116 -38 5 -54 27 -34 47 19 20 19 28 1 80 -8 22 -15
56 -15 76 0 42 -10 53 -69 74 -38 13 -46 13 -84 -2 -23 -9 -54 -29 -69 -45
-23 -25 -33 -28 -93 -28 -74 0 -106 -13 -166 -67 -39 -35 -42 -36 -117 -35
-54 1 -97 -5 -144 -20 l-67 -21 -20 24 -19 24 51 6 c29 4 69 14 90 23 31 14
44 15 76 5 35 -11 43 -9 83 15 23 14 56 31 71 38 15 7 30 23 33 35 5 20 12 22
60 22 43 -1 59 4 83 24 16 13 50 29 76 36 34 8 60 25 95 60 64 64 70 88 36
154 -14 29 -25 63 -24 77 5 71 -2 92 -41 129 -22 20 -43 48 -46 63 -6 22 -16
30 -47 39 -22 5 -47 8 -55 4 -9 -3 -37 9 -64 26 -48 30 -50 31 -75 14 -23 -15
-28 -15 -42 -2 -10 9 -30 17 -47 19 -21 2 -30 8 -29 20 1 13 -4 16 -25 12 -18
-4 -32 0 -40 10 -12 14 -9 16 29 16 38 0 41 2 29 16 -11 14 -9 15 23 9 41 -8
71 5 93 39 12 18 13 29 4 57 -22 63 -48 90 -82 87 -40 -4 -59 -34 -34 -53 13
-9 15 -15 6 -21 -7 -4 -17 0 -24 9 -17 23 -51 21 -75 -3 -11 -11 -27 -20 -35
-20 -8 0 -19 -9 -25 -19 -5 -11 -27 -30 -47 -42 -21 -13 -40 -26 -43 -30 -19
-25 -96 -79 -114 -79 -11 0 -56 -25 -99 -55 -71 -51 -97 -60 -97 -34 0 5 5 9
12 9 6 0 33 18 59 40 26 22 68 49 93 60 53 22 149 94 217 162 35 34 62 51 102
63 68 20 106 59 107 112 2 58 -29 214 -50 248 -26 42 -70 65 -124 65 -39 0
-51 5 -82 35 -37 36 -49 39 -101 29 -25 -5 -37 -19 -73 -86 l-43 -81 -18 24
c-24 32 -24 32 15 92 48 74 53 115 22 183 -22 49 -38 72 -86 131 -34 41 -154
12 -212 -51 -21 -23 -38 -47 -38 -53 0 -7 -11 -20 -25 -29 -17 -11 -25 -25
-25 -45 0 -16 -3 -28 -7 -28 -40 6 -53 -2 -59 -41 -7 -42 -27 -50 -32 -12 -2
12 14 43 42 79 50 66 86 130 86 154 0 27 -37 66 -81 83 -52 21 -71 15 -92 -29
-9 -19 -21 -35 -26 -35 -19 0 -22 20 -7 42 34 49 12 95 -65 134 -51 25 -51 25
-87 6 -41 -21 -97 -112 -108 -175 -5 -32 -12 -41 -40 -53 -26 -11 -34 -20 -34
-39 0 -24 -10 -32 -22 -19 -7 6 28 98 49 129 7 11 13 34 13 52 0 31 -2 33 -34
33 -30 0 -38 -6 -63 -45 -27 -43 -43 -56 -43 -35 0 6 4 10 9 10 4 0 6 11 3 25
-5 31 -23 32 -48 4 -10 -12 -30 -29 -44 -39 -21 -15 -28 -16 -43 -5 -16 11
-13 15 25 33 24 11 54 32 67 46 14 15 35 26 50 26 37 0 117 26 155 50 37 22
70 85 64 121 -2 18 -10 25 -30 27 -36 4 -36 24 0 39 33 15 52 73 52 161 0 54
-3 61 -38 95 -21 20 -60 44 -87 53 -68 23 -75 30 -75 76 0 25 -5 41 -15 44 -8
4 -15 13 -15 21 0 24 -39 72 -73 89 -18 9 -44 29 -59 45 -23 25 -34 29 -82 29
-67 0 -85 -15 -110 -86 -28 -80 -60 -139 -77 -142 -14 -3 -11 13 18 91 33 90
34 95 20 130 -12 28 -24 38 -56 48 -23 7 -41 15 -41 19 0 4 -13 13 -29 20 -24
10 -33 9 -54 -4 -24 -16 -25 -16 -31 14 -5 25 -10 31 -28 29 -37 -4 -65 10
-100 50 -45 52 -62 59 -140 58 -45 0 -80 5 -107 18 -41 18 -42 18 -91 -5 -28
-13 -50 -29 -50 -37 0 -7 -7 -13 -15 -13 -10 0 -15 -10 -15 -30 0 -25 -4 -30
-25 -30 -19 0 -26 -7 -34 -37 -6 -21 -11 -44 -11 -50 0 -21 -16 -15 -28 11 -8
19 -8 27 2 35 8 6 19 31 26 56 29 105 -56 162 -148 100 -46 -31 -52 -31 -52 0
0 14 -6 41 -14 59 -16 39 -46 51 -142 62 l-61 6 -41 -48z m586 -305 c24 -30
26 -59 5 -66 -7 -3 -19 12 -28 33 -28 67 -16 84 23 33z m-596 -41 c-9 -9 -12
-7 -12 12 0 19 3 21 12 12 9 -9 9 -15 0 -24z m-1276 -5 c-7 -7 -26 7 -26 19 0
6 6 6 15 -2 9 -7 13 -15 11 -17z m604 -179 c0 -60 4 -85 15 -94 8 -7 15 -25
15 -39 0 -15 11 -42 25 -61 14 -19 25 -39 25 -46 0 -7 9 -33 20 -58 10 -25 15
-46 10 -46 -15 0 -50 52 -50 75 0 27 -31 57 -37 38 -3 -7 -11 -13 -19 -13 -10
0 -14 14 -14 53 0 29 -5 58 -11 64 -14 14 -17 163 -5 207 13 50 26 10 26 -80z
m1140 61 c0 -25 -4 -45 -10 -45 -5 0 -10 20 -10 45 0 25 5 45 10 45 6 0 10
-20 10 -45z m-1771 -132 c55 -62 72 -106 23 -60 -39 37 -50 34 -54 -15 -2 -30
-8 -43 -18 -43 -18 0 -26 65 -11 92 6 13 5 28 -4 51 -22 52 6 41 64 -25z
m2211 27 c0 -11 -4 -20 -10 -20 -5 0 -10 9 -10 20 0 11 5 20 10 20 6 0 10 -9
10 -20z m-420 -46 c0 -8 -4 -14 -10 -14 -5 0 -10 9 -10 21 0 11 5 17 10 14 6
-3 10 -13 10 -21z m-2346 -43 c-8 -9 -34 10 -34 25 0 16 2 16 19 -2 10 -10 17
-21 15 -23z m2916 -3 c0 -25 -3 -29 -10 -18 -13 20 -13 50 0 50 6 0 10 -15 10
-32z m501 -91 c-22 -36 -72 -77 -94 -77 -8 0 14 28 47 63 63 65 82 70 47 14z
m-2756 5 c-6 -7 -35 18 -35 31 0 5 9 2 20 -8 11 -10 18 -20 15 -23z m-557 9
c8 -5 12 -16 10 -26 -2 -14 -7 -13 -27 9 -24 26 -13 37 17 17z m2256 -57 c-3
-13 -10 -21 -15 -18 -11 6 -12 68 -2 78 11 11 24 -33 17 -60z m-1859 -24 c-10
-31 -25 -13 -25 28 0 36 0 36 16 14 9 -13 13 -31 9 -42z m1535 -4 c0 -31 -20
-86 -31 -86 -5 0 -9 -11 -9 -24 0 -31 -10 -56 -21 -56 -13 0 -11 44 3 58 7 7
13 22 13 35 1 12 5 39 9 60 9 41 36 52 36 13z m-874 -63 c-3 -3 -12 2 -21 11
-14 14 -14 18 2 43 l18 27 3 -38 c2 -21 1 -40 -2 -43z m-1551 -21 c-6 -15 -8
-14 -20 8 -8 14 -14 33 -15 44 0 16 3 14 21 -8 13 -16 18 -33 14 -44z m2753
-44 c2 -8 -2 -27 -8 -43 -10 -26 -12 -27 -27 -13 -13 14 -14 20 -2 47 14 32
32 36 37 9z m-1508 -68 c0 -33 -16 -30 -33 6 -26 54 -22 72 8 40 14 -15 25
-36 25 -46z m1980 51 c0 -20 -27 -48 -37 -37 -8 7 17 56 29 56 4 0 8 -8 8 -19z
m-3194 -41 c7 -8 19 -33 27 -55 37 -100 67 -158 97 -192 l33 -36 -29 7 c-41
10 -52 24 -78 102 -13 38 -36 89 -50 114 -14 25 -25 59 -25 75 0 17 3 23 6 15
3 -8 11 -22 19 -30z m471 -26 c-9 -9 -27 6 -27 22 0 13 2 13 16 -1 9 -9 14
-18 11 -21z m1033 -49 c0 -19 -4 -35 -10 -35 -5 0 -10 16 -10 35 0 19 5 35 10
35 6 0 10 -16 10 -35z m-1874 -30 c24 -37 12 -40 -21 -5 -22 23 -25 30 -12 30
9 0 24 -11 33 -25z m958 -74 c-7 -9 -34 10 -34 24 0 13 3 12 18 -2 10 -10 17
-20 16 -22z m-781 -151 c53 -58 96 -112 96 -120 0 -19 -160 148 -188 196 -33
56 -11 38 92 -76z m3857 36 c0 -21 -21 -31 -31 -15 -14 22 -11 29 11 29 11 0
20 -6 20 -14z m-2213 -43 c-3 -10 -5 -4 -5 12 0 17 2 24 5 18 2 -7 2 -21 0
-30z m2393 28 c0 -5 -7 -11 -15 -15 -9 -3 -15 0 -15 9 0 8 7 15 15 15 8 0 15
-4 15 -9z m-3586 -96 c8 -17 13 -41 10 -52 -3 -11 -1 -24 5 -27 6 -4 11 -17
11 -28 0 -20 -1 -21 -20 -3 -11 10 -20 29 -20 42 0 13 -16 56 -36 96 l-36 72
36 -34 c19 -19 42 -48 50 -66z m4011 81 c-11 -8 -24 -12 -28 -9 -11 7 12 23
32 23 11 0 9 -4 -4 -14z m-3725 -80 c0 -4 -7 -6 -15 -6 -20 0 -49 46 -41 67 6
13 11 10 31 -20 14 -20 25 -38 25 -41z m3045 21 c-16 -25 -69 -67 -83 -67 -6
0 10 20 35 45 47 48 73 60 48 22z m-855 -12 c0 -14 -4 -25 -10 -25 -5 0 -10
11 -10 25 0 14 5 25 10 25 6 0 10 -11 10 -25z m1490 -5 c0 -11 -4 -20 -10 -20
-5 0 -10 9 -10 20 0 11 5 20 10 20 6 0 10 -9 10 -20z m-4270 -90 c0 -17 -3
-19 -19 -8 -21 13 -19 28 5 28 8 0 14 -9 14 -20z m2348 -12 c14 -14 16 -48 2
-48 -10 0 -30 32 -30 49 0 14 13 14 28 -1z m1662 -61 c0 -11 -42 -87 -48 -87
-4 0 -14 -15 -22 -32 l-15 -33 -3 34 c-2 19 0 37 5 40 4 3 21 23 36 44 23 30
47 48 47 34z m-2030 -47 c0 -19 -1 -19 -20 -3 -11 10 -20 19 -20 20 0 2 9 3
20 3 13 0 20 -7 20 -20z m1420 10 c0 -5 -7 -10 -15 -10 -8 0 -15 5 -15 10 0 6
7 10 15 10 8 0 15 -4 15 -10z m-34 -29 c-4 -6 -14 -11 -22 -11 -12 0 -12 3 -2
20 7 11 16 16 21 11 5 -5 6 -14 3 -20z m-1826 -12 c0 -11 -4 -17 -10 -14 -5 3
-10 13 -10 21 0 8 5 14 10 14 6 0 10 -9 10 -21z m1787 -44 c-21 -20 -27 -19
-27 4 0 11 8 21 18 23 23 5 27 -8 9 -27z m1065 -19 c-48 -105 -72 -183 -72
-234 0 -49 -11 -59 -36 -31 -16 17 -16 22 -4 29 11 7 14 25 13 63 -2 49 1 60
37 110 22 30 40 58 40 61 0 2 5 17 12 33 9 23 12 25 16 9 2 -10 0 -28 -6 -40z
m-712 12 c0 -19 -2 -20 -10 -8 -13 19 -13 30 0 30 6 0 10 -10 10 -22z m-147
-266 c-27 -35 -49 -43 -33 -11 7 13 20 32 29 42 23 28 27 0 4 -31z m1209 19
c-5 -3 -21 -32 -35 -63 -31 -70 -52 -78 -32 -12 14 48 67 114 74 93 2 -6 -1
-14 -7 -18z m-5049 0 c17 -6 17 -8 -2 -25 -17 -16 -30 -18 -83 -12 -73 9 -105
27 -67 37 32 9 130 9 152 0z m72 -66 l30 -15 -45 6 c-25 4 -52 10 -60 15 -27
15 42 9 75 -6z m-627 -80 c7 -14 12 -35 12 -47 0 -20 -1 -21 -20 -3 -20 18
-28 75 -12 75 5 0 14 -11 20 -25z m891 8 c3 -2 -3 -11 -11 -20 -16 -15 -19
-15 -42 1 -14 9 -26 21 -26 26 0 8 69 2 79 -7z m3014 -38 c-38 -30 -46 -9 -10
27 20 21 22 22 25 5 2 -10 -5 -25 -15 -32z m1617 13 c0 -18 -2 -20 -9 -8 -6 8
-7 18 -5 22 9 14 14 9 14 -14z m706 -23 c-3 -8 -14 -15 -24 -15 -10 0 -27 -6
-38 -14 -18 -13 -36 -13 -103 0 -37 8 -10 27 41 30 66 3 98 10 111 23 14 14
22 -1 13 -24z m-3866 10 c7 -9 10 -18 7 -21 -10 -11 -37 5 -37 21 0 19 14 19
30 0z m3770 5 c0 -5 -9 -10 -19 -10 -11 0 -23 5 -26 10 -4 6 5 10 19 10 14 0
26 -4 26 -10z m-5800 -34 c14 -13 36 -26 50 -30 14 -3 48 -20 75 -38 38 -24
59 -31 90 -29 l40 2 -22 -22 c-22 -23 -24 -23 -53 -6 -17 10 -35 15 -41 12 -5
-4 -28 5 -50 21 l-39 27 -23 -21 c-27 -26 -38 -20 -66 36 -12 23 -30 48 -41
54 -11 7 -20 17 -20 22 0 16 75 -5 100 -28z m4040 11 c0 -7 -7 -22 -15 -33
-12 -16 -16 -17 -24 -4 -7 10 -5 20 6 32 19 21 33 23 33 5z m-530 -21 c0 -8
-4 -18 -10 -21 -5 -3 -10 3 -10 14 0 12 5 21 10 21 6 0 10 -6 10 -14z m-1426
-83 c-18 -13 -35 -23 -37 -23 -4 0 2 58 9 78 3 10 11 7 32 -10 l29 -23 -33
-22z m3696 27 c-20 -13 -60 -13 -60 0 0 6 17 10 38 10 27 0 33 -3 22 -10z
m-37 -30 c12 0 -23 -29 -35 -30 -5 0 -8 9 -8 21 0 15 4 19 16 15 9 -3 21 -6
27 -6z m-1983 -8 c0 -5 -9 -17 -19 -26 -26 -24 -46 -12 -23 14 17 20 42 27 42
12z m-3406 -45 c-9 -5 -21 -4 -30 3 -24 20 -16 29 16 17 24 -9 27 -13 14 -20z
m2233 -13 c-9 -9 -27 6 -27 22 0 13 2 13 16 -1 9 -9 14 -18 11 -21z m-491 -53
c24 -37 26 -61 4 -61 -13 0 -40 54 -40 80 0 29 6 25 36 -19z m854 3 c22 -38
21 -64 -2 -64 -12 0 -38 63 -38 90 0 21 19 9 40 -26z m1630 24 c0 -7 -4 -19
-9 -27 -8 -12 -12 -12 -25 -2 -15 12 -15 15 1 27 23 17 33 17 33 2z m-4490
-20 c0 -19 -2 -20 -10 -8 -13 19 -13 30 0 30 6 0 10 -10 10 -22z m5594 -22
c-3 -7 -18 -23 -34 -35 -16 -12 -37 -35 -46 -52 -15 -29 -17 -30 -32 -15 -13
12 -13 19 -4 28 7 7 12 20 12 29 0 10 18 28 43 41 43 25 70 26 61 4z m-6182
-11 c6 -14 14 -25 17 -25 3 0 12 -4 20 -9 12 -8 12 -11 0 -23 -12 -11 -21 -6
-58 34 -43 48 -44 48 -17 48 18 0 30 -7 38 -25z m3044 -23 c6 -4 12 -29 13
-57 2 -49 2 -49 -18 -31 -14 13 -21 31 -21 58 0 38 5 44 26 30z m-1396 -52 c0
-5 -6 -10 -14 -10 -8 0 -18 5 -21 10 -3 6 3 10 14 10 12 0 21 -4 21 -10z
m1064 -9 c10 -11 16 -27 14 -36 -2 -13 -11 -8 -37 19 -31 32 -32 36 -15 36 12
0 29 -9 38 -19z m-108 -30 c6 -18 16 -36 24 -41 9 -5 3 -10 -18 -14 -30 -7
-42 -27 -42 -73 0 -26 -3 -27 -31 -13 -26 14 -25 56 1 63 17 4 20 14 20 54 0
27 3 53 7 57 13 12 28 0 39 -33z m292 -41 c26 -7 75 -13 109 -13 66 1 71 -2
50 -31 -14 -19 -49 -24 -84 -13 -18 7 -21 5 -16 -13 3 -11 0 -20 -6 -20 -6 0
-11 5 -11 12 0 9 -3 9 -11 1 -12 -12 -39 -7 -39 8 0 5 7 9 15 9 8 0 15 7 15
16 0 11 -6 13 -19 9 -11 -3 -22 -1 -26 5 -4 6 -15 8 -26 5 -17 -6 -19 -1 -18
37 0 36 2 40 10 22 6 -12 29 -26 57 -34z m1166 44 c12 -5 10 -11 -13 -30 -16
-13 -33 -24 -39 -24 -6 0 -12 -5 -14 -12 -2 -6 -10 -8 -17 -4 -9 6 -6 12 11
24 13 9 29 24 36 34 15 20 15 20 36 12z m-594 -29 c0 -14 -4 -25 -10 -25 -5 0
-10 11 -10 25 0 14 5 25 10 25 6 0 10 -11 10 -25z m2190 10 c-33 -19 -46 -19
-30 0 7 8 22 15 34 15 20 -1 20 -2 -4 -15z m406 -40 c-9 -14 -21 -25 -26 -25
-18 0 -11 29 13 52 27 28 36 9 13 -27z m-5368 13 c-5 -15 -23 -11 -26 6 -2 11
2 14 13 10 9 -4 14 -11 13 -16z m3572 4 c0 -29 -26 -59 -40 -46 -9 9 -6 18 11
38 27 31 29 31 29 8z m1284 -50 c-34 -31 -71 -76 -83 -99 -12 -24 -25 -43 -30
-43 -16 0 -20 28 -6 40 9 7 13 22 10 34 -4 15 2 26 22 38 15 10 48 33 73 52
72 55 81 41 14 -22z m415 -34 c-21 -21 -43 -33 -63 -34 -24 -2 -46 -18 -105
-80 -52 -55 -76 -74 -78 -63 -2 9 24 45 64 85 84 85 108 104 133 104 10 0 32
11 47 24 41 36 43 5 2 -36z m-4937 33 c8 -10 22 -21 29 -23 10 -3 11 -10 4
-27 -10 -21 -12 -20 -42 23 -32 45 -25 66 9 27z m2447 10 c7 -5 11 -13 8 -17
-3 -5 1 -24 8 -42 10 -23 21 -32 37 -32 20 -1 21 -2 7 -13 -9 -7 -18 -21 -20
-32 -6 -31 -39 -32 -39 -2 0 14 -7 30 -15 37 -10 8 -15 30 -15 61 0 50 4 56
29 40z m-240 -28 c4 -3 -26 -33 -33 -33 -3 0 -6 14 -6 31 0 28 2 30 18 18 9
-7 19 -14 21 -16z m-329 -59 c46 -46 66 -72 63 -84 -3 -10 3 -30 13 -44 20
-32 9 -49 -27 -44 -20 2 -26 11 -34 56 -8 42 -18 60 -43 80 -18 15 -32 34 -32
43 0 9 -7 22 -15 29 -8 7 -15 16 -15 21 0 22 27 4 90 -57z m440 52 c0 -8 -4
-18 -10 -21 -5 -3 -10 3 -10 14 0 12 5 21 10 21 6 0 10 -6 10 -14z m578 -23
c-2 -22 -8 -28 -26 -28 -12 0 -26 -6 -31 -14 -5 -8 -16 -11 -30 -6 -20 6 -20
7 7 29 30 26 63 45 75 46 5 0 7 -12 5 -27z m-1688 -43 c0 -32 -9 -37 -28 -18
-19 19 -15 48 8 48 16 0 20 -7 20 -30z m280 6 c0 -7 -6 -21 -14 -32 -12 -15
-17 -16 -27 -7 -10 10 -10 18 0 37 13 24 41 26 41 2z m1215 -24 c-8 -8 -25 10
-25 26 0 13 2 13 14 -4 8 -10 13 -21 11 -22z m-666 2 c-6 -7 -15 -11 -20 -8
-5 3 -3 11 4 18 16 18 31 8 16 -10z m-467 -19 c18 -41 11 -49 -26 -32 -28 13
-33 30 -13 52 18 21 21 19 39 -20z m1208 25 c0 -5 -7 -10 -15 -10 -8 0 -15 5
-15 10 0 6 7 10 15 10 8 0 15 -4 15 -10z m-1016 -55 c-5 -19 -2 -25 10 -25 9
0 16 -7 16 -14 0 -8 11 -27 25 -42 24 -26 33 -54 17 -54 -5 0 -21 14 -37 30
-16 17 -25 30 -21 30 5 0 -3 9 -18 21 -33 26 -37 79 -6 79 17 0 19 -5 14 -25z
m836 -1 c0 -8 -9 -14 -20 -14 -22 0 -28 26 -7 33 16 6 27 -1 27 -19z m-1160
-14 c0 -11 -2 -20 -4 -20 -2 0 -11 -3 -20 -6 -11 -4 -16 0 -16 14 0 18 11 29
33 31 4 1 7 -8 7 -19z m250 -5 c0 -20 5 -25 25 -25 21 0 25 -5 25 -30 0 -27
-2 -30 -19 -20 -13 7 -22 7 -26 0 -3 -6 1 -13 9 -16 15 -6 23 -44 9 -44 -16 0
-43 35 -43 57 0 12 -8 31 -18 41 -16 16 -16 18 2 40 25 29 36 28 36 -3z m140
15 c0 -5 -7 -10 -15 -10 -8 0 -15 5 -15 10 0 6 7 10 15 10 8 0 15 -4 15 -10z
m304 -89 c1 -45 -3 -65 -16 -78 -17 -16 -18 -13 -18 64 0 45 -3 90 -6 100 -6
15 -4 15 16 -4 18 -17 23 -33 24 -82z m236 40 c-1 -13 -3 -13 -15 3 -19 26
-19 42 0 26 8 -7 15 -20 15 -29z m-3603 4 c-7 -17 -102 -22 -112 -5 -4 6 11
10 37 10 24 0 50 4 58 10 18 11 24 6 17 -15z m1663 -7 c0 -11 -32 -10 -50 2
-13 9 -13 11 -1 19 14 9 51 -6 51 -21z m1848 10 c13 -13 17 -80 5 -91 -14 -15
-33 18 -33 59 0 45 7 53 28 32z m-660 -69 c-16 -12 -28 -27 -28 -35 0 -9 -5
-12 -11 -8 -10 6 -7 49 8 98 5 17 7 16 32 -8 l26 -27 -27 -20z m-118 11 c-18
-26 -28 -30 -66 -30 -37 0 -44 3 -44 20 0 16 7 20 38 20 21 0 48 9 62 20 32
25 38 9 10 -30z m-184 22 c6 -4 4 -13 -8 -24 -17 -17 -18 -17 -18 7 0 26 7 30
26 17z m3344 -2 c0 -5 -4 -10 -9 -10 -21 0 -95 -71 -105 -101 -15 -46 -36 -50
-36 -7 0 39 30 73 95 106 46 24 55 26 55 12z m-2010 -46 c0 -8 -8 -14 -18 -14
-26 0 -33 10 -19 25 14 15 37 8 37 -11z m450 -15 c0 -6 -9 -22 -20 -36 -11
-14 -20 -31 -20 -38 0 -7 -7 -18 -15 -25 -10 -9 -15 -9 -15 -1 0 6 -13 11 -30
11 -16 0 -30 5 -30 11 0 8 -5 8 -15 -1 -13 -11 -15 -8 -15 14 0 25 1 26 16 12
8 -9 21 -16 28 -16 15 0 78 46 89 65 9 17 27 20 27 4z m-3050 -87 c0 -12 -4
-11 -21 4 -21 19 -49 66 -49 81 1 14 70 -70 70 -85z m1665 0 c20 -9 25 -19 25
-51 0 -21 6 -44 14 -50 8 -7 18 -27 22 -44 12 -57 36 -120 51 -135 10 -10 11
-18 4 -25 -15 -15 -46 16 -64 66 -53 146 -58 157 -87 157 -26 0 -68 38 -53 47
6 5 14 31 18 58 10 70 17 75 32 28 9 -25 23 -44 38 -51z m875 81 c0 -12 -43
-53 -57 -53 -24 0 -14 36 15 47 34 14 42 15 42 6z m230 -23 c0 -11 -11 -45
-25 -76 -14 -31 -25 -67 -25 -80 0 -38 -18 -37 -26 1 -6 36 19 125 36 125 4 0
10 14 14 31 6 32 26 31 26 -1z m-1331 -13 c13 -34 -13 -147 -34 -147 -3 0 -5
38 -5 85 0 70 3 85 15 85 9 0 19 -10 24 -23z m285 8 c28 -21 10 -38 -20 -19
-13 9 -24 20 -24 25 0 13 22 10 44 -6z m-424 -24 c0 -11 -29 -35 -35 -29 -10
9 7 38 21 38 8 0 14 -4 14 -9z m237 -53 c-2 -60 -11 -83 -29 -72 -4 3 -8 32
-8 64 0 47 3 59 18 63 9 3 18 5 19 6 1 0 1 -27 0 -61z m-2677 15 c21 -22 22
-25 5 -18 -11 4 -60 9 -110 12 -113 6 -121 8 -104 29 10 13 27 14 98 9 74 -6
90 -11 111 -32z m845 25 l26 -12 -23 -12 c-19 -10 -26 -10 -40 3 -35 32 -13
44 37 21z m1244 -15 c21 -13 22 -16 8 -30 -14 -14 -19 -13 -55 16 -23 17 -47
29 -55 25 -8 -3 -18 0 -22 6 -11 17 93 3 124 -17z m1621 -72 c0 -57 -4 -82
-15 -91 -9 -8 -12 -22 -8 -41 7 -37 -13 -39 -29 -3 -8 17 -18 24 -30 21 -14
-4 -24 5 -38 33 -27 54 -25 72 12 101 36 27 89 58 101 59 4 0 7 -35 7 -79z
m298 42 c-16 -20 -28 -15 -28 12 0 22 2 24 19 13 15 -9 17 -15 9 -25z m-218
-25 c0 -24 -5 -50 -10 -58 -7 -11 -10 2 -10 43 0 31 4 57 10 57 6 0 10 -19 10
-42z m-1486 6 c9 -24 0 -28 -24 -11 -15 11 -18 16 -8 20 22 9 26 8 32 -9z
m-149 -44 c3 -5 2 -10 -4 -10 -5 0 -13 5 -16 10 -3 6 -2 10 4 10 5 0 13 -4 16
-10z m2895 0 c-19 -13 -30 -13 -30 0 0 6 10 10 23 10 18 0 19 -2 7 -10z
m-2806 -10 c18 0 18 -1 2 -19 -15 -17 -22 -18 -44 -8 -36 15 -35 14 -27 27 4
7 17 9 29 6 11 -3 30 -6 40 -6z m1704 -12 c-6 -18 -28 -21 -28 -4 0 9 7 16 16
16 9 0 14 -5 12 -12z m1042 -5 c-14 -10 -41 -23 -60 -30 -29 -10 -39 -10 -58
3 -31 20 -24 25 45 34 100 13 101 13 73 -7z m-890 -7 c0 -8 -4 -18 -10 -21 -5
-3 -10 3 -10 14 0 12 5 21 10 21 6 0 10 -6 10 -14z m2278 -15 c-5 -14 -111
-106 -149 -129 -33 -20 -49 -20 -49 0 0 4 7 8 15 8 8 0 25 9 37 20 102 92 157
130 146 101z m-4683 -32 c-3 -4 -12 -6 -20 -3 -8 4 -13 10 -10 15 3 4 12 6 20
3 8 -4 13 -10 10 -15z m2979 9 c-15 -7 -28 -7 -40 1 -16 9 -12 10 21 10 35 0
37 -2 19 -11z m-604 -22 c0 -27 -12 -46 -29 -46 -29 0 -31 11 -8 35 26 28 37
31 37 11z m2040 4 c-19 -13 -30 -13 -30 0 0 6 10 10 23 10 18 0 19 -2 7 -10z
m-4360 -20 c13 -8 13 -11 -2 -26 -16 -17 -18 -17 -38 1 -11 10 -20 22 -20 27
0 11 41 10 60 -2z m4271 -17 c-27 -11 -36 -12 -49 -1 -13 11 -11 14 14 18 16
4 38 4 49 1 17 -4 15 -7 -14 -18z m-4442 -28 c22 -37 21 -41 -10 -25 -11 6
-19 21 -19 35 0 33 4 32 29 -10z m-1244 5 c3 -6 -5 -10 -19 -10 -14 0 -28 5
-31 10 -3 6 5 10 19 10 14 0 28 -4 31 -10z m5570 0 c4 -6 -5 -10 -21 -10 -15
0 -42 -12 -61 -26 -19 -14 -37 -23 -40 -20 -8 7 -8 7 41 40 40 27 70 33 81 16z
m-4020 -15 c22 0 46 -4 53 -9 6 -4 21 -2 32 4 23 12 24 11 10 -25 -9 -23 -15
-26 -36 -21 -30 8 -84 -13 -84 -31 0 -7 -4 -13 -10 -13 -5 0 -10 11 -10 24 0
14 -12 39 -27 57 l-28 32 30 -8 c17 -4 48 -9 70 -10z m443 -5 l23 -19 -35 -36
c-41 -41 -47 -42 -71 -15 -13 14 -22 17 -29 10 -5 -5 -23 -10 -38 -10 -21 0
-28 5 -28 18 0 14 15 23 60 37 34 10 63 22 66 27 8 13 27 9 52 -12z m2244 -2
c-9 -9 -15 -9 -24 0 -9 9 -7 12 12 12 19 0 21 -3 12 -12z m118 -33 c-30 -20
-60 -46 -66 -60 -9 -23 -11 -24 -30 -9 -13 11 -15 17 -6 20 6 3 12 14 12 24 0
23 13 32 65 46 75 21 82 15 25 -21z m-573 -9 c-3 -7 -19 -23 -36 -35 l-31 -22
0 23 c1 15 12 30 33 43 32 21 44 17 34 -9z m2022 -41 c-42 -55 -79 -86 -79
-65 0 20 85 120 103 120 14 0 9 -11 -24 -55z m-4008 29 c12 -15 8 -16 -44 -13
-48 3 -57 1 -57 -13 0 -26 -15 -30 -35 -8 -14 16 -15 20 -4 24 8 2 28 9 44 14
45 16 81 14 96 -4z m2406 -25 c38 -18 43 -25 43 -55 0 -27 -4 -34 -20 -34 -10
0 -25 10 -31 23 -15 28 -59 66 -79 67 -13 0 -13 1 0 10 22 14 39 12 87 -11z
m-2782 0 c11 -17 2 -18 -19 -3 -17 12 -17 14 -4 14 9 0 20 -5 23 -11z m1220 0
c11 -17 -1 -21 -15 -4 -8 9 -8 15 -2 15 6 0 14 -5 17 -11z m2238 -64 c-38 -30
-46 -9 -10 27 20 21 22 22 25 5 2 -10 -5 -25 -15 -32z m-3430 17 c15 -16 15
-19 -3 -30 -11 -7 -20 -9 -20 -5 0 5 -3 18 -6 31 -8 27 7 29 29 4z m317 -8
c39 -19 64 -25 90 -21 21 2 43 -1 53 -8 16 -11 15 -13 -3 -30 -19 -17 -28 -47
-12 -43 4 1 17 -2 30 -6 14 -5 35 -3 53 5 23 9 33 9 42 0 6 -6 28 -11 49 -11
44 0 49 -13 13 -36 -14 -9 -24 -24 -23 -33 2 -12 -7 -17 -42 -19 -41 -3 -47 0
-90 42 -63 64 -119 106 -141 106 -29 0 -24 -48 7 -81 l27 -28 -27 -7 c-31 -7
-34 -24 -6 -31 25 -7 26 -28 3 -42 -17 -10 -17 -12 0 -25 20 -16 24 -80 5 -74
-7 3 -19 18 -27 34 -7 16 -21 40 -30 54 -12 18 -16 50 -17 115 0 50 -5 107
-11 128 -6 20 -8 37 -4 37 4 0 32 -12 61 -26z m2170 16 c0 -5 9 -10 20 -10 11
0 20 -4 20 -10 0 -5 -9 -10 -19 -10 -11 0 -23 5 -26 10 -3 6 -16 10 -28 10
-18 0 -19 2 -7 10 20 13 40 13 40 0z m-2380 -52 c-1 -42 -1 -43 -15 -18 -19
33 -19 60 0 60 11 0 15 -11 15 -42z m2581 23 c-6 -10 -26 -28 -45 -39 -31 -18
-35 -19 -49 -4 -15 14 -13 18 16 38 18 13 45 23 60 24 24 0 26 -2 18 -19z
m412 2 c-7 -2 -19 -2 -25 0 -7 3 -2 5 12 5 14 0 19 -2 13 -5z m-1855 -30 c-5
-23 -23 -20 -26 4 -3 18 0 21 13 17 9 -4 15 -13 13 -21z m1205 17 l42 -1 -27
-23 c-15 -13 -44 -27 -66 -31 -35 -6 -41 -11 -70 -71 -18 -36 -38 -67 -46 -70
-7 -3 -30 2 -50 10 l-36 15 49 46 c27 25 52 57 55 70 7 27 72 67 94 60 8 -3
32 -5 55 -5z m-1933 -35 c-6 -8 -18 -11 -26 -8 -12 4 -12 8 3 18 22 16 38 8
23 -10z m3730 -5 c0 -5 -7 -10 -15 -10 -8 0 -15 5 -15 10 0 6 7 10 15 10 8 0
15 -4 15 -10z m-4120 -60 c0 -11 7 -20 15 -20 8 0 15 -9 15 -20 0 -31 -27 -23
-39 11 -14 39 -14 49 -1 49 6 0 10 -9 10 -20z m-1100 0 c0 -5 -15 -10 -32 -10
-25 0 -29 3 -18 10 20 13 50 13 50 0z m-1229 -43 c-12 -12 -31 0 -31 19 0 12
3 12 20 2 11 -7 16 -16 11 -21z m462 -4 c26 -4 34 -9 25 -14 -16 -11 -100 -12
-125 -2 -15 6 -13 9 12 14 43 9 46 9 88 2z m2166 -12 c10 -6 10 -10 1 -16 -7
-4 -19 0 -28 9 -14 13 -14 16 -2 16 8 0 21 -4 29 -9z m2121 -20 c0 -25 -3 -28
-25 -23 -39 7 -33 52 7 52 13 0 18 -8 18 -29z m-4559 8 c8 -4 7 -13 -1 -29 -9
-18 -18 -21 -43 -17 -52 8 -127 39 -121 49 6 10 148 8 165 -3z m534 2 c-9 -15
-90 -24 -132 -15 l-38 7 30 7 c46 11 147 11 140 1z m4405 -16 c0 -9 -17 -34
-39 -58 -21 -23 -50 -61 -65 -85 -18 -28 -33 -42 -44 -40 -26 5 -26 33 0 47
13 7 49 44 81 82 32 38 60 69 62 69 3 0 5 -7 5 -15z m-2456 -72 c34 -30 48
-63 27 -63 -25 0 -68 24 -88 48 -25 31 -29 48 -10 55 15 6 26 0 71 -40z m1933
19 c-20 -19 -55 -8 -38 12 7 8 21 12 32 9 18 -5 19 -7 6 -21z m2253 2 c0 -2
-12 -4 -27 -4 -21 0 -24 3 -14 9 13 8 41 5 41 -5z m-2130 -15 c0 -18 -2 -20
-15 -9 -13 11 -13 15 -3 21 18 12 18 12 18 -12z m-4497 4 c-7 -2 -19 -2 -25 0
-7 3 -2 5 12 5 14 0 19 -2 13 -5z m6547 -3 c0 -5 -6 -10 -14 -10 -8 0 -18 5
-21 10 -3 6 3 10 14 10 12 0 21 -4 21 -10z m250 2 c0 -12 -40 -33 -50 -27 -22
14 -9 35 20 35 17 0 30 -3 30 -8z m-4740 -21 c0 -15 -17 -22 -36 -14 -16 6
-16 7 2 14 27 11 34 10 34 0z m2380 -7 c0 -8 -7 -22 -15 -30 -9 -9 -15 -34
-15 -60 0 -51 -19 -67 -49 -40 -22 20 -45 20 -61 1 -14 -17 -30 -11 -30 10 0
17 58 85 72 85 5 0 26 11 46 25 43 29 52 31 52 9z m2025 6 c3 -5 -1 -10 -9
-10 -9 0 -16 5 -16 10 0 6 4 10 9 10 6 0 13 -4 16 -10z m-80 -10 c-3 -5 -12
-10 -20 -10 -8 0 -17 5 -20 10 -4 6 5 10 20 10 15 0 24 -4 20 -10z m-6220 -10
c-3 -5 -14 -10 -23 -9 -14 0 -13 2 3 9 27 11 27 11 20 0z m258 -57 c26 -14 28
-18 14 -21 -27 -6 -82 19 -65 29 17 11 14 12 51 -8z m4082 7 c7 -11 -31 -70
-46 -70 -13 0 -11 49 4 65 14 17 33 19 42 5z m-2495 -20 c28 -11 60 -20 70
-20 29 0 25 -18 -5 -26 -16 -4 -44 2 -75 15 -27 11 -56 21 -64 21 -29 0 -14
26 16 29 4 1 30 -8 58 -19z m-961 -9 c21 -14 -31 -25 -66 -16 l-28 8 25 7 c35
11 53 11 69 1z m3631 -21 c0 -5 -12 -10 -27 -10 -22 0 -25 2 -13 10 20 13 40
13 40 0z m1980 0 c0 -5 -7 -10 -15 -10 -8 0 -15 5 -15 10 0 6 7 10 15 10 8 0
15 -4 15 -10z m-2040 -41 c0 -24 -56 -109 -72 -109 -18 0 1 82 24 107 27 29
48 29 48 2z m1933 -6 c8 -7 -34 -32 -45 -26 -14 7 -8 21 10 26 27 7 28 7 35 0z
m-6738 -13 c11 -17 -122 -17 -139 1 -6 5 17 9 61 9 40 0 75 -4 78 -10z m2142
-15 c19 -19 16 -22 -22 -26 -35 -4 -55 6 -55 27 0 19 57 19 77 -1z m5123 8 c0
-12 -79 -42 -85 -33 -3 5 7 16 22 24 30 16 63 21 63 9z m-590 -12 c0 -13 -27
-21 -46 -14 -13 5 -13 7 -2 14 17 11 48 11 48 0z m-4443 -25 c-2 -6 -16 -12
-31 -14 -27 -3 -27 -3 -9 16 19 19 47 18 40 -2z m3288 -25 c20 -8 20 -8 -2
-15 -12 -4 -34 -4 -49 0 -25 7 -26 8 -9 15 25 10 35 10 60 0z m665 2 c24 -6
23 -7 -10 -18 -39 -14 -60 -10 -60 11 0 15 29 18 70 7z m-1300 -93 c0 -25 -74
-50 -92 -32 -14 14 -14 14 37 34 53 21 55 21 55 -2z m-2542 -38 c8 -6 1 -12
-22 -19 -41 -13 -55 -5 -23 13 28 15 29 15 45 6z m-1538 -16 c0 -9 -30 -14
-35 -6 -4 6 3 10 14 10 12 0 21 -2 21 -4z m1390 -6 c11 -7 4 -10 -25 -10 -29
0 -36 3 -25 10 8 5 20 10 25 10 6 0 17 -5 25 -10z m5015 -50 c28 -5 76 -9 108
-9 43 -1 57 -5 57 -16 0 -16 -43 -31 -60 -20 -17 10 -146 7 -191 -5 -21 -6
-44 -16 -51 -23 -22 -20 -101 -58 -107 -51 -9 9 49 51 79 58 35 6 90 55 73 63
-25 10 -13 25 15 19 15 -4 50 -11 77 -16z m-5128 -42 c-3 -7 -5 -2 -5 12 0 14
2 19 5 13 2 -7 2 -19 0 -25z m3185 10 c-17 -8 -26 -8 -34 0 -9 9 -4 12 23 11
32 0 33 -1 11 -11z m-3074 -24 c-9 -9 -21 -13 -27 -10 -20 13 -11 26 16 26 25
0 26 -1 11 -16z m2726 0 c33 -13 14 -24 -42 -24 -32 0 -66 -6 -77 -14 -31 -21
-84 -30 -101 -16 -31 27 166 75 220 54z m-2836 -54 c9 0 9 -7 -3 -30 -9 -16
-22 -30 -30 -30 -14 0 -35 -29 -35 -49 0 -6 7 -11 15 -11 23 0 18 -17 -18 -56
l-32 -36 -41 17 c-29 11 -47 13 -66 6 -14 -5 -31 -6 -39 -1 -11 8 -10 12 6 24
11 9 28 16 37 16 9 0 23 12 30 27 15 31 38 42 38 19 0 -9 4 -16 9 -16 18 0 40
30 56 81 15 44 20 50 39 45 11 -3 27 -6 34 -6z m-1013 -10 c-3 -5 -12 -10 -20
-10 -8 0 -17 5 -20 10 -4 6 5 10 20 10 15 0 24 -4 20 -10z m1225 -19 c0 -25
-54 -46 -70 -26 -8 10 -6 17 12 29 31 22 58 20 58 -3z m3400 9 c0 -5 10 -10
23 -10 17 0 19 -2 8 -9 -10 -6 -25 -4 -43 5 -33 17 -35 24 -8 24 11 0 20 -4
20 -10z m-3256 -46 c-37 -31 -153 -94 -174 -94 -23 0 -8 30 18 36 15 4 47 21
71 38 63 44 105 65 115 59 5 -3 -9 -21 -30 -39z m2480 37 c19 -7 19 -8 1 -15
-12 -4 -24 -1 -34 9 -13 13 -13 15 -1 14 8 0 24 -4 34 -8z m706 -11 c0 -5 -17
-10 -37 -10 -28 0 -34 3 -23 10 20 13 60 13 60 0z m-630 -50 c4 0 10 7 14 15
8 22 26 18 26 -5 0 -21 -27 -40 -59 -40 -24 0 -28 29 -9 63 13 22 13 22 16 -5
2 -16 7 -28 12 -28z m1810 40 c0 -5 -17 -10 -37 -10 -28 0 -34 3 -23 10 20 13
60 13 60 0z m-110 -25 c-15 -19 -21 -19 -46 0 -18 13 -16 14 20 15 33 0 37 -2
26 -15z m-1790 -26 c0 -11 -42 -22 -69 -17 -33 5 -26 22 11 28 37 7 58 2 58
-11z m-3440 1 c-20 -13 -47 -13 -55 0 -4 6 9 10 32 10 28 0 34 -3 23 -10z
m735 0 c3 -5 -1 -10 -9 -10 -8 0 -18 5 -21 10 -3 6 1 10 9 10 8 0 18 -4 21
-10z m-2115 -10 c22 -6 23 -8 7 -15 -9 -4 -34 -4 -55 0 -31 6 -34 9 -17 15 24
10 33 10 65 0z m940 -21 c0 -10 -99 -12 -124 -3 -32 12 -6 19 58 16 36 -2 66
-8 66 -13z m4164 15 c15 -6 15 -8 -1 -20 -10 -7 -29 -13 -43 -13 l-25 0 24 19
c26 23 24 22 45 14z m-4914 -19 c0 -8 -9 -15 -20 -15 -25 0 -26 17 -2 23 9 3
18 5 20 6 1 0 2 -6 2 -14z m-78 -6 c-15 -6 -30 -5 -40 1 -13 7 -8 9 23 9 35 0
37 -1 17 -10z m1088 -4 c0 -16 -26 -20 -57 -8 -16 6 -15 8 7 14 40 11 50 10
50 -6z m-930 -5 c11 -7 3 -10 -30 -10 -33 0 -41 3 -30 10 8 5 22 10 30 10 8 0
22 -5 30 -10z m90 -20 c17 0 21 -3 13 -11 -13 -13 -69 -3 -79 13 -5 8 1 9 17
5 13 -4 35 -7 49 -7z m2004 -25 c26 -6 28 -8 14 -21 -9 -9 -37 -17 -65 -18
-54 -2 -73 -10 -73 -31 0 -7 -12 -23 -26 -34 -31 -24 -58 -15 -91 32 -24 33
-14 54 17 37 9 -5 22 -5 31 1 7 5 26 9 40 9 17 0 29 8 37 24 9 21 14 23 49 15
21 -5 51 -11 67 -14z m-324 -51 c52 -40 64 -64 30 -64 -11 0 -20 7 -20 15 0 8
-18 24 -40 35 -34 18 -40 25 -40 53 1 25 3 28 10 16 5 -9 32 -34 60 -55z m54
60 c20 -8 11 -24 -14 -24 -13 0 -17 5 -14 15 7 17 7 17 28 9z m2716 0 c0 -13
-35 -33 -56 -34 -12 0 -32 9 -45 20 l-24 19 63 1 c34 0 62 -3 62 -6z m1390 -4
c0 -5 -8 -14 -18 -19 -14 -7 -23 -5 -35 10 -16 18 -16 19 18 19 19 0 35 -4 35
-10z m-5724 -40 c70 -39 102 -65 91 -76 -6 -7 -112 50 -137 73 -8 8 -24 20
-35 28 -43 30 11 14 81 -25z m1220 5 c-3 -10 -19 -15 -46 -15 -22 0 -40 -3
-40 -7 0 -5 -3 -18 -6 -30 -5 -17 1 -26 26 -42 30 -18 31 -19 11 -26 -15 -4
-30 1 -52 19 -17 14 -36 26 -44 26 -7 0 -15 7 -19 15 -3 10 -20 15 -48 15 -24
1 -54 7 -68 15 -23 13 -15 14 87 15 61 0 113 4 115 8 5 12 83 39 86 30 2 -5 1
-15 -2 -23z m256 3 c-9 -9 -12 -7 -12 12 0 19 3 21 12 12 9 -9 9 -15 0 -24z
m5183 -18 c4 -6 -6 -10 -22 -10 -22 0 -25 2 -13 10 19 12 27 12 35 0z m-1274
-9 c-8 -5 -20 -7 -28 -4 -21 8 -15 13 15 13 20 0 23 -3 13 -9z m1406 -36 c8
-23 0 -24 -19 -3 -15 15 -16 18 -3 18 9 0 18 -7 22 -15z m-2507 -34 c0 -17 -6
-18 -42 -14 -56 6 -68 10 -68 23 0 6 24 10 55 10 47 0 55 -3 55 -19z m-2945
-2 c11 -17 -1 -21 -15 -4 -8 9 -8 15 -2 15 6 0 14 -5 17 -11z m-88 -51 c25 -9
33 -17 31 -33 -3 -23 -38 -34 -38 -12 0 9 -12 25 -27 36 -32 23 -16 27 34 9z
m263 -13 c0 -8 -4 -15 -10 -15 -5 0 -10 7 -10 15 0 8 5 15 10 15 6 0 10 -7 10
-15z m58 -12 c-16 -15 -48 -8 -48 11 0 8 11 11 31 8 26 -4 29 -6 17 -19z
m4822 8 c0 -5 -24 -14 -52 -21 -29 -7 -72 -21 -96 -32 -28 -13 -47 -17 -53
-11 -6 6 4 16 28 28 21 10 49 24 63 31 28 15 110 19 110 5z m-2092 -28 c42 -7
47 -43 5 -43 -16 0 -35 -4 -43 -10 -9 -6 -17 -5 -21 2 -5 8 -15 6 -33 -5 -24
-16 -26 -16 -36 2 -19 36 -12 59 18 64 15 3 38 3 52 0 14 -2 40 -7 58 -10z
m440 -4 c-12 -7 -24 -7 -35 0 -15 9 -12 10 17 10 29 0 32 -1 18 -10z m1208
-51 c-19 -13 -73 -9 -86 7 -21 26 -2 32 48 16 29 -9 45 -19 38 -23z m-449 -4
c-2 -2 -12 -2 -21 2 -15 6 -15 7 1 20 15 11 19 10 21 -2 2 -9 2 -18 -1 -20z
m673 16 c0 -5 -8 -10 -19 -10 -10 0 -31 -6 -47 -14 -21 -12 -32 -12 -48 -3
-19 10 -16 12 26 17 26 3 50 9 54 13 11 10 34 8 34 -3z m-6272 -56 c12 -4 22
-10 22 -15 0 -11 -61 -12 -87 -2 -16 6 -15 8 7 14 34 10 32 9 58 3z m1683 -78
c-31 -32 -71 -53 -71 -37 0 10 39 45 65 59 37 21 39 12 6 -22z m2639 4 c13
-18 20 -39 17 -51 -3 -11 1 -23 11 -28 16 -9 16 -11 0 -27 -14 -14 -22 -15
-49 -5 -56 19 -120 14 -162 -14 l-37 -26 -25 27 c-14 15 -25 30 -25 34 0 4
-17 15 -38 23 -37 15 -90 12 -121 -7 -6 -4 -11 -1 -11 8 0 10 9 16 21 16 11 0
36 12 55 26 34 26 35 26 55 8 16 -14 36 -18 103 -18 45 1 91 6 102 12 15 8 23
7 37 -5 25 -23 47 -2 29 27 -15 25 -15 30 2 30 8 0 24 -14 36 -30z m2157 -36
c-15 -8 -40 -14 -55 -12 -26 4 -26 4 8 15 19 6 44 11 55 12 16 0 15 -3 -8 -15z
m-3117 -14 c12 -8 11 -10 -7 -10 -12 0 -25 5 -28 10 -8 13 15 13 35 0z m2860
-30 c12 -8 11 -10 -7 -10 -12 0 -25 -5 -29 -11 -4 -8 -9 -8 -18 1 -21 21 25
38 54 20z m-4288 -16 c7 -6 -24 -64 -34 -64 -16 0 -18 21 -2 45 16 25 26 30
36 19z m4218 -9 c0 -4 -47 -26 -95 -43 -49 -18 -105 -25 -105 -14 0 10 44 25
80 28 34 2 80 17 80 25 0 5 9 9 20 9 11 0 20 -2 20 -5z m635 -15 c-10 -11 -44
-33 -76 -49 -32 -16 -66 -36 -75 -45 -18 -19 -34 -13 -34 13 0 11 16 23 48 34
26 10 65 28 87 41 52 31 75 34 50 6z m-2379 -35 c4 -8 3 -22 0 -30 -4 -13 -10
-14 -26 -5 -22 12 -27 36 -7 43 21 9 27 7 33 -8z m-2703 -2 c-7 -2 -19 -2 -25
0 -7 3 -2 5 12 5 14 0 19 -2 13 -5z m-1066 -24 c-14 -8 -22 -8 -30 0 -8 8 -3
11 19 11 25 -1 27 -2 11 -11z m1363 -4 c0 -8 -4 -15 -10 -15 -5 0 -16 -12 -24
-27 -30 -55 -33 -58 -50 -44 -13 11 -13 16 4 44 27 44 80 72 80 42z m2215 3
c11 1 37 4 59 8 36 6 38 5 31 -16 -5 -15 -2 -26 6 -31 10 -6 4 -9 -16 -9 -17
0 -36 -5 -42 -11 -6 -6 -17 -8 -23 -4 -9 6 -9 10 1 16 9 6 2 9 -21 9 -38 0
-60 14 -60 38 0 10 6 12 23 7 12 -4 31 -7 42 -7z m-3640 -8 c-3 -5 -12 -10
-20 -10 -8 0 -17 5 -20 10 -4 6 5 10 20 10 15 0 24 -4 20 -10z m1080 0 c3 -6
-4 -10 -17 -10 -18 0 -20 2 -8 10 19 12 18 12 25 0z m-1335 -20 c0 -11 -6 -20
-14 -20 -7 0 -28 -3 -45 -6 -41 -8 -40 9 2 30 43 21 57 20 57 -4z m4300 -16
c0 -20 -5 -24 -28 -24 -41 0 -44 9 -14 35 31 27 42 24 42 -11z m-2316 -55
c-15 -16 -29 -27 -31 -26 -7 7 18 71 34 90 18 19 18 19 21 -8 3 -19 -5 -36
-24 -56z m-431 -4 c-32 -25 -43 -16 -15 13 18 18 28 23 30 14 2 -8 -5 -20 -15
-27z m2328 9 c8 -8 26 -14 38 -14 20 0 77 -48 68 -57 -6 -5 -111 23 -139 38
-31 16 -58 40 -58 52 0 13 71 -1 91 -19z m-4061 -4 c0 -5 -6 -10 -13 -10 -8 0
-24 -9 -37 -20 -13 -11 -30 -20 -38 -20 -8 0 -43 -15 -76 -34 -34 -18 -72 -36
-86 -39 -14 -4 -49 -22 -78 -42 -30 -19 -58 -35 -63 -35 -5 0 -48 -22 -96 -50
-87 -50 -103 -57 -103 -42 1 26 507 299 535 288 8 -3 17 -1 20 4 8 13 35 13
35 0z m4212 -72 c6 -14 5 -18 -7 -18 -20 0 -37 42 -21 52 6 4 13 2 15 -5 2 -7
8 -20 13 -29z m-2542 -17 c0 -35 -17 -50 -64 -58 -26 -4 -36 -2 -36 7 0 17 30
39 52 40 10 0 20 11 24 25 8 32 24 22 24 -14z m2890 19 c0 -16 -26 -40 -44
-40 -3 0 -6 14 -6 30 0 25 4 30 25 30 18 0 25 -5 25 -20z m131 -28 c-24 -3
-40 3 -54 17 l-21 20 55 -17 c52 -17 53 -17 20 -20z m-308 -4 c-30 -29 -34
-31 -57 -19 -14 8 -36 11 -50 7 -23 -6 -26 -3 -26 19 0 25 1 25 82 25 l83 0
-32 -32z m-2243 -28 c0 -37 5 -57 20 -72 20 -22 19 -50 -2 -91 -7 -15 -12 -16
-24 -6 -17 14 -21 219 -4 219 6 0 10 -23 10 -50z m208 20 c22 -18 22 -21 8
-49 -18 -34 -21 -81 -6 -81 18 0 11 -29 -10 -40 -11 -6 -20 -17 -20 -24 0 -7
-8 -24 -18 -37 -23 -30 -36 -63 -21 -53 7 4 9 -2 7 -17 -5 -37 -25 -33 -31 8
-7 40 15 122 36 135 8 5 7 14 -2 34 -8 19 -9 30 -1 38 5 5 10 29 10 51 0 60
10 67 48 35z m1704 -21 c37 -12 74 -18 91 -15 38 8 31 -12 -12 -38 -32 -18
-32 -18 -53 4 -17 18 -29 21 -72 18 -28 -3 -58 -8 -67 -12 -21 -9 -76 35 -65
52 12 19 111 14 178 -9z m-2183 -75 c-30 -36 -40 0 -11 44 l17 26 3 -27 c2
-16 -2 -35 -9 -43z m771 56 c0 -6 -13 -18 -28 -28 -57 -35 -137 -147 -126
-176 8 -20 -43 -73 -80 -86 -18 -6 -44 -22 -57 -36 -13 -14 -41 -35 -63 -46
-31 -16 -40 -17 -47 -6 -20 31 -6 48 52 67 22 7 39 20 42 31 3 11 14 20 24 20
16 0 19 8 19 49 0 53 24 101 51 101 26 0 98 47 117 75 24 36 96 62 96 35z
m4065 -10 c4 -6 -26 -10 -84 -10 -49 0 -93 5 -96 10 -4 6 26 10 84 10 49 0 93
-4 96 -10z m-4618 -82 l-6 -68 27 0 c20 0 23 -3 14 -12 -17 -17 -14 -67 7
-115 16 -34 17 -42 6 -47 -31 -12 -90 101 -70 134 3 6 -5 31 -19 55 -13 25
-20 45 -15 45 5 0 9 12 9 26 0 37 17 64 36 57 14 -5 16 -17 11 -75z m-1997 52
c0 -5 -4 -10 -9 -10 -6 0 -13 5 -16 10 -3 6 1 10 9 10 9 0 16 -4 16 -10z
m5565 -10 c46 -12 160 -68 184 -90 9 -8 33 -24 54 -35 20 -11 37 -23 37 -28 0
-5 8 -6 19 -2 10 3 24 -1 31 -10 7 -8 19 -15 26 -15 17 0 19 -16 3 -25 -5 -4
-27 5 -48 19 -20 14 -44 26 -53 26 -9 0 -18 3 -20 8 -3 7 -179 96 -250 126
-21 9 -38 20 -38 26 0 12 5 12 55 0z m-1565 -19 c0 -22 -38 -35 -57 -19 -11 9
-10 13 4 24 26 20 53 17 53 -5z m815 9 c3 -5 24 -10 46 -10 28 0 39 -4 39 -15
0 -11 -12 -15 -44 -15 -57 0 -76 8 -76 31 0 20 24 26 35 9z m-2954 -39 c-18
-11 -41 -3 -41 14 0 20 23 25 40 8 13 -12 13 -15 1 -22z m309 -2 c0 -18 -2
-20 -15 -9 -13 11 -13 15 -3 21 18 12 18 12 18 -12z m-1740 -14 c0 -12 -21
-25 -41 -25 -15 0 -10 22 8 36 20 14 33 10 33 -11z m2840 -37 c11 -46 50 -131
63 -136 15 -7 6 -41 -24 -98 -17 -33 -34 -78 -38 -102 -8 -54 -23 -58 -34 -9
-5 22 -19 45 -33 54 -18 11 -22 21 -18 38 7 30 -11 40 -38 21 -20 -14 -23 -13
-44 7 -13 12 -33 30 -44 40 -17 14 -18 20 -8 37 10 16 9 25 -5 49 -9 16 -17
37 -17 47 0 16 2 16 16 -4 8 -12 25 -22 36 -22 12 0 39 -8 60 -17 32 -15 37
-22 33 -43 -6 -29 37 -90 63 -90 26 0 11 106 -20 137 -25 25 -25 27 -11 62 13
32 40 71 49 71 2 0 8 -19 14 -42z m-1560 12 c0 -5 -9 -10 -20 -10 -11 0 -20 5
-20 10 0 6 9 10 20 10 11 0 20 -4 20 -10z m-116 -40 c-11 -11 -44 -3 -44 10 0
12 33 18 45 8 5 -5 5 -12 -1 -18z m236 1 c0 -12 -57 -82 -80 -98 -35 -25 -29
3 13 55 38 47 67 66 67 43z m1808 -31 c50 -34 52 -36 52 -82 0 -48 -12 -68
-27 -46 -4 7 -8 27 -8 43 0 25 -6 33 -42 50 -35 16 -42 25 -43 48 0 33 -2 33
68 -13z m-3908 20 c11 -7 4 -10 -25 -9 -31 0 -36 2 -20 9 26 11 28 11 45 0z
m1818 -22 c-5 -16 -42 -34 -83 -42 -25 -5 -26 -5 -8 3 12 6 27 19 33 30 12 23
65 30 58 9z m2444 -28 c15 0 30 -4 33 -10 3 -5 17 -10 31 -10 26 0 27 -1 18
-24 -5 -14 -10 -14 -41 -1 -20 8 -55 15 -80 15 -46 0 -93 23 -93 45 0 11 10
11 53 -1 28 -7 64 -14 79 -14z m-352 -60 c0 -5 -10 -10 -22 -10 -19 0 -20 2
-8 10 19 13 30 13 30 0z m2838 -10 c18 0 43 -15 75 -46 26 -25 47 -47 47 -50
0 -7 -38 -4 -42 4 -12 27 -73 66 -110 71 -30 4 -44 11 -46 24 -3 15 0 16 23 7
14 -5 38 -10 53 -10z m-4068 3 c0 -5 -25 -28 -55 -53 -30 -25 -55 -51 -55 -59
0 -11 3 -11 17 0 15 13 15 11 9 -26 -11 -56 -15 -59 -43 -30 -28 28 -43 31
-60 14 -7 -7 -29 -15 -49 -18 -36 -6 -38 -8 -57 -76 -11 -39 -23 -73 -29 -76
-5 -3 -5 -16 1 -32 8 -20 18 -27 36 -27 19 0 25 -5 25 -22 0 -32 -36 -88 -56
-88 -14 0 -15 7 -10 39 4 28 1 48 -11 69 -15 25 -15 34 -5 54 10 18 10 31 3
52 -16 40 -14 83 4 90 22 8 18 53 -5 73 -13 12 -20 30 -20 53 l0 35 21 -32
c11 -17 30 -34 43 -37 18 -4 23 -11 19 -26 -9 -32 35 -25 97 17 30 20 57 40
60 44 24 36 120 85 120 62z m1366 -11 c6 -4 4 -13 -8 -24 -17 -17 -18 -17 -18
7 0 26 7 30 26 17z m1191 -29 c24 -10 43 -22 43 -26 0 -14 -64 4 -85 24 -24
24 -13 24 42 2z m-4597 -13 c0 -5 -9 -10 -20 -10 -11 0 -20 5 -20 10 0 6 9 10
20 10 11 0 20 -4 20 -10z m3168 1 c8 -5 12 -16 10 -26 -2 -14 -6 -13 -25 9
-22 25 -13 35 15 17z m-1063 -68 c-6 -39 -4 -43 15 -43 36 0 19 -31 -25 -46
-22 -7 -48 -14 -58 -14 -10 0 -29 -7 -42 -16 -25 -16 -25 -16 -25 20 0 24 5
36 14 36 16 0 26 21 26 56 0 17 8 27 24 33 13 5 26 17 29 25 6 14 10 14 27 4
18 -11 20 -19 15 -55z m2580 37 c-3 -5 -16 -10 -28 -10 -18 0 -19 2 -7 10 20
13 43 13 35 0z m83 -17 c-4 -17 -22 -19 -58 -7 -13 4 -13 6 0 14 26 17 62 12
58 -7z m172 8 c0 -5 -7 -11 -15 -15 -15 -5 -20 5 -8 17 9 10 23 9 23 -2z
m-1930 -42 c0 -32 -15 -37 -41 -13 -17 16 -17 17 4 34 27 23 37 17 37 -21z
m-3101 -16 c-30 -31 -76 -56 -83 -44 -3 5 13 18 37 30 23 12 39 21 35 21 -5 0
0 8 10 18 26 27 27 4 1 -25z m-255 31 c22 -8 20 -31 -4 -44 -18 -10 -20 -8
-20 20 0 32 1 33 24 24z m3025 -13 c16 -10 7 -45 -11 -39 -6 2 -18 14 -26 26
-13 20 -13 22 4 22 11 0 25 -4 33 -9z m791 -6 c-7 -8 -17 -12 -22 -9 -6 4 -5
10 3 15 22 14 33 10 19 -6z m1636 4 c36 -9 42 -14 33 -25 -10 -12 -15 -12 -35
1 -13 8 -36 15 -51 15 -22 0 -25 2 -13 10 19 12 13 12 66 -1z m-1696 -29 c11
-11 20 -27 20 -35 0 -27 -28 -16 -49 20 -16 28 -17 35 -6 35 8 0 24 -9 35 -20z
m-1510 -15 c0 -8 -9 -15 -20 -15 -11 0 -20 7 -20 15 0 8 9 15 20 15 11 0 20
-7 20 -15z m2210 0 c31 -12 32 -14 10 -14 -41 -1 -100 11 -100 20 0 13 50 10
90 -6z m-1610 -15 c24 -24 25 -33 4 -51 -14 -11 -20 -10 -40 14 -13 16 -24 35
-24 43 0 21 37 17 60 -6z m-2070 3 c0 -12 -33 -43 -47 -43 -17 0 -17 6 4 30
17 19 43 27 43 13z m2229 -12 c7 -5 11 -14 7 -19 -9 -15 -36 -4 -36 14 0 16 9
18 29 5z m78 -6 c8 -9 13 -19 10 -22 -10 -10 -37 6 -37 22 0 19 7 19 27 0z
m-1970 -28 c-5 -15 -20 -18 -37 -7 -13 9 -13 11 -1 19 17 11 43 3 38 -12z
m1401 -33 c-3 -2 -20 -6 -39 -10 l-34 -6 33 22 c17 12 33 27 33 33 1 7 4 1 6
-11 3 -13 3 -26 1 -28z m-668 -29 c-5 -14 -10 -49 -10 -76 0 -51 -13 -66 -24
-26 -10 38 -7 86 10 125 13 31 17 34 25 20 6 -10 5 -26 -1 -43z m1276 -17 c20
-35 44 -71 52 -80 13 -16 13 -18 -4 -25 -11 -4 -21 -1 -26 8 -5 8 -26 43 -47
79 -27 45 -35 67 -27 72 6 4 12 8 13 8 1 0 18 -28 39 -62z m657 48 c6 -15 -11
-36 -29 -36 -9 0 -9 6 -1 25 13 28 22 31 30 11z m-3860 -36 c3 -11 2 -20 -1
-20 -4 0 -17 -3 -29 -6 -17 -5 -23 -2 -23 10 0 9 7 16 15 16 8 0 15 5 15 10 0
18 18 10 23 -10z m3819 -52 c-10 -22 -11 -21 -11 12 -1 26 2 31 11 22 8 -8 8
-17 0 -34z m-4162 12 c0 -11 -4 -20 -10 -20 -5 0 -10 9 -10 20 0 11 5 20 10
20 6 0 10 -9 10 -20z m2989 -51 c-14 -27 -19 -24 -19 12 0 27 2 30 15 19 11
-9 12 -17 4 -31z m931 12 c0 -10 -7 -24 -15 -31 -13 -11 -15 -8 -15 19 0 21 5
31 15 31 8 0 15 -8 15 -19z m-3497 -27 c7 -8 -39 -46 -75 -62 -39 -16 -46 4
-12 31 24 19 51 32 75 36 3 1 8 -2 12 -5z m447 -9 c0 -8 -2 -15 -4 -15 -2 0
-11 -3 -20 -6 -10 -4 -16 -1 -16 9 0 14 13 24 33 26 4 1 7 -6 7 -14z m3182
-23 c5 -19 -17 -60 -28 -50 -3 4 -8 25 -11 48 -6 40 -5 42 14 31 11 -5 23 -19
25 -29z m-1289 11 c-7 -2 -19 -2 -25 0 -7 3 -2 5 12 5 14 0 19 -2 13 -5z
m-1413 -13 c0 -5 -8 -10 -17 -10 -15 0 -16 2 -3 10 19 12 20 12 20 0z m4555
-30 c3 -6 26 -15 51 -21 51 -13 61 -34 12 -25 -18 3 -50 9 -71 12 -39 7 -52
17 -42 34 8 13 42 13 50 0z m-5125 -3 c0 -11 -62 -47 -71 -41 -7 4 1 14 18 25
25 17 53 25 53 16z m525 -7 c3 -5 -1 -10 -9 -10 -8 0 -18 5 -21 10 -3 6 1 10
9 10 8 0 18 -4 21 -10z m1345 -3 c0 -8 -11 -19 -25 -25 -32 -15 -57 -15 -32
-1 9 5 17 17 17 24 0 8 9 15 20 15 11 0 20 -6 20 -13z m240 -16 c0 -5 -7 -11
-15 -15 -9 -3 -15 0 -15 9 0 8 7 15 15 15 8 0 15 -4 15 -9z m-2207 -25 c16
-12 15 -14 -10 -19 -16 -4 -39 -10 -53 -13 l-25 -7 24 27 c27 29 38 31 64 12z
m3021 -46 c6 0 26 14 45 32 l34 32 -7 -66 c-6 -53 -4 -68 8 -81 9 -9 16 -20
16 -26 0 -6 20 -25 45 -43 35 -26 44 -39 44 -63 l0 -30 -20 25 c-44 54 -89
100 -98 100 -5 0 -11 9 -14 19 -3 11 -30 36 -61 56 -54 34 -78 67 -69 91 2 6
17 -1 35 -17 16 -16 35 -29 42 -29z m-864 46 c0 -3 -13 -11 -30 -20 -28 -14
-30 -13 -30 5 0 14 7 19 30 19 17 0 30 -2 30 -4z m1100 -26 c0 -11 -2 -20 -3
-20 -2 0 -12 9 -22 20 -18 19 -17 20 3 20 15 0 22 -6 22 -20z m-2700 0 c0 -5
-7 -10 -15 -10 -8 0 -15 5 -15 10 0 6 7 10 15 10 8 0 15 -4 15 -10z m2074 -88
c27 -52 15 -54 -37 -6 -31 27 -43 44 -33 44 9 0 22 12 28 28 l11 27 7 -30 c4
-16 14 -45 24 -63z m1086 63 c0 -14 -4 -25 -10 -25 -5 0 -10 11 -10 25 0 14 5
25 10 25 6 0 10 -11 10 -25z m-2760 -21 c0 -24 -28 -72 -67 -115 -37 -41 -53
-48 -53 -24 0 8 4 15 10 15 5 0 15 18 21 40 7 22 18 40 25 40 8 0 20 16 29 36
14 34 35 39 35 8z m817 -21 c-7 -16 -7 -30 1 -48 10 -23 9 -29 -13 -52 -22
-24 -25 -25 -31 -9 -4 9 -2 22 5 29 6 6 11 37 11 69 0 55 1 57 19 46 16 -9 17
-16 8 -35z m-602 12 c19 -15 18 -16 -13 -47 l-32 -33 0 48 c0 50 10 58 45 32z
m-909 -48 c-15 -19 -26 -39 -26 -45 0 -7 -2 -12 -4 -12 -2 0 -11 -3 -20 -6 -9
-3 -16 -1 -16 5 0 6 7 11 15 11 10 0 15 10 15 26 0 27 24 53 48 54 8 0 3 -13
-12 -33z m3484 -48 c0 -5 -4 -9 -10 -9 -5 0 -10 7 -10 16 0 8 5 12 10 9 6 -3
10 -10 10 -16z m-1849 -120 c-38 -35 -41 -18 -3 25 18 22 28 27 30 18 2 -8
-10 -27 -27 -43z m3109 -47 c0 -15 -2 -15 -10 -2 -13 20 -13 33 0 25 6 -3 10
-14 10 -23z m-3983 -55 c-18 -14 -87 -122 -87 -135 0 -6 -7 -12 -15 -16 -22
-8 -19 19 8 62 13 20 30 53 37 72 8 19 26 45 40 57 l25 22 3 -26 c2 -13 -3
-30 -11 -36z m4385 3 l22 -35 -40 35 c-21 19 -41 37 -44 38 -3 2 5 2 18 0 13
-2 32 -18 44 -38z m-4662 4 c0 -19 -24 -84 -32 -84 -4 0 -8 -13 -8 -29 0 -19
-15 -48 -44 -86 -41 -52 -65 -116 -66 -173 0 -9 -12 -35 -25 -57 -14 -22 -25
-50 -25 -63 0 -20 4 -22 23 -16 67 21 175 115 235 204 20 30 43 61 50 68 6 7
12 20 12 28 0 8 9 14 20 14 11 0 20 -2 20 -5 0 -16 -31 -63 -44 -68 -9 -4 -29
-31 -46 -61 -17 -30 -45 -66 -63 -79 -18 -14 -46 -39 -64 -55 -17 -16 -49 -40
-70 -53 -54 -33 -163 -140 -167 -166 -6 -29 -47 -84 -58 -77 -13 8 -9 30 7 44
8 7 17 28 21 49 3 20 19 56 34 81 41 65 56 124 42 156 -16 33 -16 32 13 26 21
-4 25 -1 25 21 0 14 11 47 25 73 14 26 25 57 25 69 0 14 14 35 34 53 43 38 89
107 83 124 -5 16 20 68 33 68 6 0 10 -3 10 -6z m4985 -14 c-3 -5 -12 -10 -20
-10 -8 0 -17 5 -20 10 -4 6 5 10 20 10 15 0 24 -4 20 -10z m155 -21 c24 -24
26 -31 14 -36 -19 -7 -68 27 -72 51 -6 27 27 19 58 -15z m-2330 0 c0 -11 -4
-17 -10 -14 -5 3 -10 13 -10 21 0 8 5 14 10 14 6 0 10 -9 10 -21z m2248 2 c10
-6 9 -10 -7 -14 -14 -3 -21 0 -21 9 0 16 9 18 28 5z m-4459 -134 c-12 -45 -24
-99 -26 -119 -6 -46 -16 -48 -33 -8 -9 22 -9 34 -1 43 6 8 17 46 26 85 8 40
23 85 32 99 18 27 18 27 21 5 2 -12 -7 -59 -19 -105z m4116 113 c3 -5 2 -10
-4 -10 -5 0 -13 5 -16 10 -3 6 -2 10 4 10 5 0 13 -4 16 -10z m-2185 -80 c9
-17 8 -20 -9 -20 -22 0 -35 15 -26 30 10 16 23 12 35 -10z m1508 -35 c26 -18
31 -25 18 -25 -17 0 -86 37 -86 46 0 12 35 1 68 -21z m-1258 6 c0 -17 -18 -21
-24 -6 -3 9 0 15 9 15 8 0 15 -4 15 -9z m-640 -159 c0 -24 -1 -25 -20 -7 -11
10 -20 29 -20 43 0 24 1 25 20 7 11 -10 20 -29 20 -43z m2370 -71 c54 -16 61
-20 40 -25 -14 -3 -43 -5 -65 -3 -33 2 -41 7 -43 25 -2 12 -2 22 0 22 2 -1 32
-9 68 -19z m-1676 -94 c6 -38 13 -48 32 -53 13 -3 24 -12 24 -20 0 -20 -23
-17 -50 6 -13 11 -34 23 -47 26 -26 7 -27 8 -12 35 7 15 7 24 -1 34 -8 10 -8
14 2 18 30 13 43 1 52 -46z m-1640 21 c-15 -49 -23 -66 -35 -74 -9 -5 -10 3
-5 36 8 52 13 60 32 60 11 0 13 -6 8 -22z m266 -12 c0 -20 -6 -36 -14 -39 -18
-7 -26 21 -15 51 12 33 29 26 29 -12z m-900 4 c13 -8 13 -10 -2 -10 -9 0 -20
5 -23 10 -8 13 5 13 25 0z m1928 -35 c16 -62 15 -71 -7 -51 -21 19 -34 96 -16
96 6 0 16 -20 23 -45z m-2254 -57 c-8 -39 -62 -138 -75 -138 -12 0 -12 17 0
25 5 3 13 20 16 38 10 43 43 107 56 107 7 0 8 -12 3 -32z m2908 -33 c0 -25 1
-50 2 -57 1 -6 -5 -13 -11 -15 -10 -4 -13 12 -13 56 0 70 19 84 22 16z m-252
-17 c0 -19 -2 -20 -10 -8 -13 19 -13 30 0 30 6 0 10 -10 10 -22z m699 -64 c12
-20 19 -39 16 -42 -10 -10 -45 32 -45 55 0 31 4 29 29 -13z m-3659 13 c0 -19
-21 -37 -42 -37 -16 0 -16 2 4 25 24 28 38 32 38 12z m1224 -30 c8 -12 7 -22
-2 -34 -6 -10 -27 -43 -44 -73 l-33 -55 -3 39 c-2 27 5 54 25 92 29 55 39 61
57 31z m2827 -52 c23 -48 19 -69 -7 -44 -15 15 -32 89 -20 89 3 0 15 -20 27
-45z m-3835 -12 c-13 -24 -15 -26 -21 -10 -5 11 -1 25 11 38 24 26 30 9 10
-28z m3500 -22 c-13 -20 -26 -11 -26 16 0 25 1 26 16 11 9 -9 13 -21 10 -27z
m-3516 -40 c0 -4 -7 -16 -15 -27 -14 -18 -14 -17 -15 13 0 25 4 31 15 27 8 -4
15 -9 15 -13z m4502 -11 c30 -35 21 -49 -12 -20 -13 11 -29 20 -37 20 -7 0
-13 7 -13 15 0 25 34 17 62 -15z m-2902 -20 c0 -11 -7 -20 -15 -20 -13 0 -14
4 -5 20 6 11 13 20 15 20 3 0 5 -9 5 -20z m594 14 c8 -3 12 -12 9 -21 -4 -10
-2 -14 4 -10 15 10 82 -51 98 -90 16 -39 20 -73 7 -73 -4 0 -20 25 -35 55 -14
30 -45 71 -67 92 -48 45 -53 61 -16 47z m-352 -69 c-12 -22 -27 -2 -18 22 5
12 10 13 17 6 7 -7 8 -17 1 -28z m2323 -13 c-6 -7 -35 18 -35 31 0 5 9 2 20
-8 11 -10 18 -20 15 -23z m-4176 -15 c13 -16 4 -53 -28 -115 -23 -45 -47 -57
-38 -19 21 85 41 147 47 147 4 0 13 -6 19 -13z m1871 -82 c0 -32 -12 -32 -27
0 -10 22 -9 25 8 25 14 0 19 -7 19 -25z m-586 -112 c-4 -16 -10 -50 -13 -78
-9 -72 -26 -61 -29 19 -3 70 4 85 37 86 10 0 11 -7 5 -27z m470 -98 c10 -20
16 -48 14 -63 -4 -26 -4 -26 -21 12 -24 54 -31 86 -19 86 5 0 17 -16 26 -35z
m382 -13 c-9 -8 -26 10 -26 26 1 15 2 15 15 -2 8 -11 13 -21 11 -24z m-2216 2
c0 -9 -5 -14 -12 -12 -18 6 -21 28 -4 28 9 0 16 -7 16 -16z m1350 -71 c0 -28
-16 -85 -33 -118 -6 -11 -12 -54 -14 -95 -3 -41 -7 -82 -11 -90 -6 -16 -19 76
-21 152 -1 40 1 46 17 41 17 -4 20 4 25 57 4 34 4 66 1 71 -3 5 4 9 15 9 16 0
21 -6 21 -27z m1064 -8 c17 -25 13 -51 -5 -40 -5 4 -16 19 -24 36 -13 24 -13
29 -1 29 7 0 21 -11 30 -25z m-534 -35 c6 -11 7 -20 2 -20 -10 0 -32 21 -32
32 0 16 19 8 30 -12z m904 -91 c-14 -23 -45 10 -58 61 -6 22 -3 20 28 -14 20
-21 33 -43 30 -47z m-310 45 c9 -3 16 -15 16 -27 0 -19 -1 -20 -20 -2 -30 27
-28 41 4 29z m331 -95 c9 -17 14 -38 10 -47 -5 -14 -9 -13 -20 8 -14 24 -20
70 -10 70 2 0 12 -14 20 -31z m-463 -69 c6 0 5 -6 -3 -16 -12 -15 -14 -14 -20
7 -4 13 -7 35 -7 49 0 21 1 20 9 -7 5 -18 14 -33 21 -33z"/>
</g>
</svg>
