<?xml version="1.0" standalone="no"?>
<!DOCTYPE svg PUBLIC "-//W3C//DTD SVG 20010904//EN"
 "http://www.w3.org/TR/2001/REC-SVG-20010904/DTD/svg10.dtd">
<svg version="1.0" xmlns="http://www.w3.org/2000/svg"
 width="868.000000pt" height="1536.000000pt" viewBox="0 0 868.000000 1536.000000"
 preserveAspectRatio="xMidYMid meet">
<metadata>
Created by potrace 1.16, written by Peter Selinger 2001-2019
</metadata>
<g transform="translate(0.000000,1536.000000) scale(0.100000,-0.100000)"
fill="#000000" stroke="none">
<path d="M635 15350 c-248 -20 -503 -63 -564 -95 -41 -21 -64 -69 -65 -132 -1
-44 3 -56 27 -81 61 -64 190 -101 441 -128 447 -47 508 -67 821 -262 422 -264
734 -533 890 -767 61 -92 90 -149 179 -347 116 -260 155 -372 216 -620 86
-349 102 -469 140 -1083 29 -468 76 -617 239 -767 93 -86 135 -79 190 30 25
49 26 66 22 362 -3 228 7 299 61 450 146 410 156 452 168 718 5 106 14 209 19
230 34 123 248 374 367 429 48 22 66 25 124 21 96 -7 176 -45 196 -94 20 -48
30 -140 17 -156 -6 -7 -13 -50 -17 -96 -9 -112 -40 -287 -76 -424 -16 -63 -34
-163 -40 -224 -5 -60 -21 -151 -35 -203 -28 -105 -50 -236 -60 -356 -3 -44
-13 -155 -21 -247 -14 -154 -14 -172 1 -230 31 -115 34 -132 49 -285 10 -97
23 -172 37 -210 47 -126 68 -217 103 -443 45 -286 92 -520 156 -785 75 -310
139 -495 249 -714 77 -152 98 -209 115 -311 9 -52 30 -144 46 -205 53 -200
109 -545 152 -940 19 -178 22 -265 23 -570 0 -423 -8 -526 -85 -1110 -58 -440
-64 -530 -65 -980 -1 -466 -2 -477 -70 -641 -20 -47 -95 -203 -168 -347 -173
-341 -248 -529 -412 -1035 -30 -95 -82 -239 -114 -320 -79 -196 -124 -353
-156 -540 -16 -90 -15 -102 9 -335 14 -133 30 -293 35 -356 7 -85 14 -121 28
-139 41 -54 47 -44 62 98 17 149 21 157 134 282 131 144 137 153 187 279 55
139 122 270 176 346 70 97 214 199 242 171 20 -20 13 -102 -18 -202 -16 -52
-41 -155 -55 -228 -54 -277 -69 -338 -136 -567 l-70 -236 3 -135 c2 -119 -1
-143 -21 -200 -17 -49 -23 -89 -24 -167 l-2 -103 75 -146 c43 -86 86 -155 100
-165 16 -12 61 -22 126 -30 125 -15 136 -10 259 104 101 94 128 141 189 337
62 201 66 262 24 440 -31 135 -58 282 -58 318 0 47 28 39 60 -18 23 -42 25
-55 25 -175 0 -125 1 -132 28 -178 34 -57 206 -238 280 -295 29 -22 69 -43 91
-47 22 -3 72 -20 113 -36 87 -34 133 -37 179 -9 91 57 107 239 48 530 -19 90
-51 138 -226 342 -125 145 -197 214 -265 254 -38 23 -42 29 -36 55 4 23 0 34
-25 57 -16 15 -42 52 -57 82 -15 30 -59 102 -98 160 -84 127 -169 294 -165
323 3 20 10 22 71 25 82 4 152 -15 245 -64 58 -31 74 -35 119 -32 95 8 181 91
267 258 77 149 153 421 260 925 82 386 86 426 86 770 l0 298 49 91 c78 144 86
185 85 431 0 174 -5 241 -28 390 -71 473 -239 1293 -376 1830 -109 428 -197
708 -345 1100 -113 300 -148 414 -195 642 -66 319 -114 498 -255 953 -169 545
-197 718 -286 1765 -18 209 -21 321 -20 685 1 406 15 879 27 925 16 61 26 75
55 75 37 0 147 -42 229 -87 186 -103 303 -212 370 -345 63 -125 75 -199 75
-448 0 -203 -2 -223 -32 -365 -51 -243 -57 -297 -57 -515 0 -153 5 -230 18
-305 44 -243 150 -463 218 -453 57 8 89 103 194 573 108 487 143 605 235 785
68 131 155 249 307 414 198 214 269 310 402 541 106 184 144 230 420 510 367
373 463 475 551 585 203 255 394 380 724 475 210 60 264 93 300 177 22 55 19
104 -8 132 -56 56 -387 80 -567 42 -272 -58 -554 -175 -853 -354 -155 -93
-298 -199 -483 -358 -170 -145 -219 -181 -310 -227 -270 -135 -608 -158 -1159
-77 -223 33 -234 38 -163 70 54 25 73 25 190 1 261 -54 432 -32 657 84 118 61
171 116 171 179 0 28 -7 52 -19 67 l-19 24 -249 -3 -248 -4 -135 41 c-232 71
-327 76 -477 26 -43 -15 -118 -49 -166 -77 -131 -75 -197 -76 -197 -4 0 48 24
73 118 120 128 64 162 103 162 181 0 71 -35 122 -110 160 -265 135 -792 33
-990 -192 -46 -53 -52 -95 -20 -135 36 -46 90 -60 268 -67 159 -7 163 -8 190
-34 22 -23 27 -36 27 -84 0 -51 -3 -59 -25 -71 -34 -18 -188 -9 -300 19 -288
70 -471 74 -589 14 -25 -13 -86 -53 -134 -89 -135 -100 -181 -106 -328 -42
-125 54 -215 121 -384 286 -88 86 -212 196 -275 243 -63 48 -173 135 -245 192
-311 253 -525 374 -725 412 -92 17 -481 25 -635 13z"/>
</g>
</svg>
