<?xml version="1.0" standalone="no"?>
<!DOCTYPE svg PUBLIC "-//W3C//DTD SVG 20010904//EN"
 "http://www.w3.org/TR/2001/REC-SVG-20010904/DTD/svg10.dtd">
<svg version="1.0" xmlns="http://www.w3.org/2000/svg"
 width="1536.000000pt" height="1409.000000pt" viewBox="0 0 1536.000000 1409.000000"
 preserveAspectRatio="xMidYMid meet">
<metadata>
Created by potrace 1.16, written by Peter Selinger 2001-2019
</metadata>
<g transform="translate(0.000000,1409.000000) scale(0.100000,-0.100000)"
fill="#000000" stroke="none">
<path d="M4844 14080 c-322 -26 -687 -118 -1149 -292 -829 -312 -1814 -827
-2360 -1233 -236 -176 -357 -308 -380 -415 -24 -112 -87 -190 -427 -525 -360
-355 -469 -501 -512 -685 -63 -267 51 -472 692 -1238 383 -459 511 -630 589
-791 48 -97 54 -132 38 -227 -24 -144 212 -643 591 -1251 63 -100 114 -186
114 -191 0 -10 -95 -64 -107 -60 -6 2 -142 -40 -150 -46 -2 -1 7 -36 18 -77
71 -251 348 -730 903 -1564 l240 -360 3 -65 c13 -231 196 -766 410 -1195 195
-390 374 -649 591 -856 127 -121 244 -198 370 -243 80 -28 98 -31 222 -32
l136 -1 174 -81 c304 -140 817 -352 854 -352 3 0 16 -4 30 -10 l26 -9 -56 -82
c-103 -151 -209 -386 -285 -627 -54 -171 -79 -298 -86 -427 -6 -125 9 -202 51
-252 21 -25 24 -38 23 -118 0 -110 8 -129 130 -327 50 -79 125 -209 169 -290
43 -81 82 -144 85 -140 3 4 16 86 28 182 12 96 31 216 42 265 43 195 127 395
207 493 l28 34 37 -94 c49 -123 149 -320 222 -437 52 -83 250 -309 262 -297 2
2 -1 82 -8 177 -6 96 -11 202 -10 237 2 106 42 171 133 218 108 55 252 224
418 488 54 87 90 135 100 133 21 -3 39 -43 128 -292 106 -295 122 -325 224
-419 l83 -76 8 92 c14 162 35 274 77 397 39 117 41 132 75 473 19 194 44 459
56 588 24 267 33 296 119 372 148 133 384 244 950 448 429 155 588 226 672
299 57 50 89 66 184 90 230 57 621 92 1259 110 1062 31 2312 33 3453 6 436
-10 794 -16 797 -14 2 3 9 124 14 269 34 858 -21 1897 -150 2830 -243 1764
-721 3250 -1356 4220 -653 997 -1662 1792 -2993 2360 -321 137 -893 336 -1120
389 -776 184 -2659 432 -3840 506 -295 19 -892 27 -1046 15z m-2717 -5562
c434 -419 1336 -1904 1611 -2653 39 -106 76 -254 66 -264 -15 -15 -205 102
-339 208 -208 165 -612 560 -896 876 -167 187 -439 504 -439 513 0 4 68 27
150 51 83 24 150 45 150 47 0 2 -25 42 -56 90 -184 281 -348 619 -404 830 -27
104 -36 217 -20 273 13 48 58 101 85 101 10 0 51 -33 92 -72z"/>
</g>
</svg>
