<?xml version="1.0" standalone="no"?>
<!DOCTYPE svg PUBLIC "-//W3C//DTD SVG 20010904//EN"
 "http://www.w3.org/TR/2001/REC-SVG-20010904/DTD/svg10.dtd">
<svg version="1.0" xmlns="http://www.w3.org/2000/svg"
 width="1389.000000pt" height="1536.000000pt" viewBox="0 0 1389.000000 1536.000000"
 preserveAspectRatio="xMidYMid meet">
<metadata>
Created by potrace 1.16, written by Peter Selinger 2001-2019
</metadata>
<g transform="translate(0.000000,1536.000000) scale(0.100000,-0.100000)"
fill="#000000" stroke="none">
<path d="M12378 15343 c-9 -10 -73 -115 -143 -233 -236 -397 -901 -1460 -1410
-2255 -70 -110 -139 -224 -152 -253 -39 -83 -41 -187 -8 -274 5 -12 -7 -16
-56 -22 -74 -7 -150 -40 -203 -87 -21 -18 -84 -101 -139 -184 -1304 -1950
-2921 -3889 -4942 -5924 -1009 -1015 -1871 -1824 -2890 -2710 -187 -162 -362
-317 -389 -344 -72 -74 -100 -142 -101 -248 l0 -86 -35 10 c-50 13 -144 1
-204 -27 -28 -13 -112 -72 -186 -131 -419 -335 -1187 -881 -1478 -1051 -43
-25 -53 -61 -22 -86 12 -10 30 -16 39 -14 12 4 99 -146 382 -662 349 -635 366
-668 352 -689 -14 -21 -14 -26 1 -48 9 -14 23 -25 32 -25 58 0 478 212 785
396 450 270 1112 733 1276 892 25 24 58 71 76 110 27 57 31 78 31 147 l0 81
51 -8 c60 -9 142 4 202 33 76 37 997 856 1678 1494 2385 2231 4317 4350 5936
6510 394 525 997 1385 1045 1490 38 82 41 192 9 276 -5 13 4 17 53 22 82 7
170 48 224 105 25 26 73 92 108 147 35 55 251 386 481 736 683 1042 948 1462
1062 1686 60 119 59 139 -11 137 -38 -1 -75 27 -708 511 -569 435 -669 516
-666 534 4 26 -24 61 -48 61 -9 0 -24 -8 -32 -17z"/>
</g>
</svg>
